M48
;Layer_Color=9474304
;FILE_FORMAT=2:5
INCH,TZ
;TYPE=PLATED
T1F00S00C0.00787
T2F00S00C0.01181
T3F00S00C0.01200
T4F00S00C0.01575
T5F00S00C0.01968
T7F00S00C0.03543
T8F00S00C0.07874
%
T01
X560839Y342169
X565169
Y337839
X569500
Y342169
X573831
Y337839
X578161Y342169
Y346500
X573831
X569500
X565169
X560839
Y350831
X565169
X569500
X573831
X578161
X573831Y355161
X569500
X565169
T02
X515000Y362500
X583500Y360000
X586616Y356399
X588600Y354600
X588000Y351988
T03
X571600Y365900
T04
X502800Y347000
X530500Y345500
X547600Y344900
X551000Y351000
X543500Y360000
X564000Y363500
X562000Y366500
X556500Y333500
X557500Y323000
X566000Y329500
X573949Y328951
X578200Y325700
X592500Y339000
Y343000
Y347000
X617000Y349000
X622000Y361500
X616000Y371000
X609900Y372200
X607900Y369700
X619000Y331000
X537000Y329500
T05
X495369Y331181
Y350276
T07
X515500Y300500
X525500
X535500
X545500
X555500
X565500
X575500
X585500
X595500
X605500
X615500
Y310500
X605500
X595500
X585500
X575500
X565500
X555500
X545500
X535500
X525500
X515500
X516500Y379500
Y389500
X526500
Y379500
X536500
Y389500
X546500
Y379500
X556500
Y389500
X566500
Y379500
X576500
Y389500
X586500
Y379500
X596500
Y389500
X606500
Y379500
X616500
Y389500
X632000Y374000
X642000
Y364000
X632000
Y354000
X642000
Y344000
X632000
Y334000
X642000
Y324000
X632000
Y314000
X642000
T08
X646819Y302181
X482181
Y390319
X646819
M30
