G04*
G04 #@! TF.GenerationSoftware,Altium Limited,Altium Designer,21.6.1 (37)*
G04*
G04 Layer_Physical_Order=1*
G04 Layer_Color=255*
%FSLAX25Y25*%
%MOIN*%
G70*
G04*
G04 #@! TF.SameCoordinates,071825C8-D767-4C1D-B5F0-F0FA3D86134F*
G04*
G04*
G04 #@! TF.FilePolarity,Positive*
G04*
G01*
G75*
%ADD13C,0.01000*%
%ADD14C,0.00600*%
%ADD16R,0.03000X0.03000*%
%ADD17P,0.03247X8X292.5*%
%ADD18R,0.05906X0.07874*%
%ADD19P,0.03247X8X202.5*%
%ADD20R,0.03000X0.03000*%
%ADD21R,0.06299X0.01378*%
%ADD22O,0.00787X0.02756*%
%ADD23O,0.02756X0.00787*%
%ADD24R,0.21063X0.21063*%
%ADD25R,0.03000X0.04000*%
%ADD26R,0.05512X0.04724*%
%ADD47C,0.02000*%
%ADD48C,0.11811*%
%ADD49C,0.06299*%
%ADD50R,0.06299X0.06299*%
%ADD51O,0.07874X0.05906*%
%ADD52O,0.03937X0.03150*%
%ADD53R,0.06299X0.06299*%
%ADD54C,0.01968*%
%ADD55C,0.02362*%
%ADD56C,0.02200*%
G36*
X650542Y398731D02*
X651816Y398203D01*
X652962Y397437D01*
X653937Y396462D01*
X654703Y395316D01*
X655231Y394042D01*
X655500Y392689D01*
Y392000D01*
Y300500D01*
Y299811D01*
X655231Y298458D01*
X654703Y297184D01*
X653937Y296038D01*
X652962Y295063D01*
X651816Y294297D01*
X650542Y293769D01*
X649189Y293500D01*
X479811D01*
X478458Y293769D01*
X477184Y294297D01*
X476038Y295063D01*
X475063Y296038D01*
X474297Y297184D01*
X473769Y298458D01*
X473500Y299811D01*
Y300500D01*
Y392000D01*
Y392689D01*
X473769Y394042D01*
X474297Y395316D01*
X475063Y396462D01*
X476038Y397437D01*
X477184Y398203D01*
X478458Y398731D01*
X479811Y399000D01*
X649189D01*
X650542Y398731D01*
D02*
G37*
%LPC*%
G36*
X606500Y393181D02*
X605547Y393056D01*
X604660Y392688D01*
X603897Y392103D01*
X603312Y391340D01*
X602944Y390453D01*
X602819Y389500D01*
X602820Y389495D01*
X602809Y389470D01*
Y389469D01*
X602809Y389469D01*
X602809Y389469D01*
X602808Y388965D01*
X602794Y388514D01*
X602727Y387723D01*
X602678Y387407D01*
X602618Y387134D01*
X602550Y386909D01*
X602478Y386736D01*
X602409Y386616D01*
X602316Y386502D01*
X602302Y386455D01*
X600923Y385077D01*
X600746Y384812D01*
X600684Y384500D01*
X600684Y384500D01*
Y378427D01*
X600483Y378272D01*
X600124Y378503D01*
X600060Y378577D01*
X600181Y379500D01*
X600056Y380453D01*
X599688Y381341D01*
X599103Y382103D01*
X598341Y382688D01*
X597453Y383056D01*
X596500Y383181D01*
X595547Y383056D01*
X594660Y382688D01*
X593897Y382103D01*
X593312Y381341D01*
X592944Y380453D01*
X592819Y379500D01*
X592820Y379495D01*
X592809Y379470D01*
Y379468D01*
X592809Y379468D01*
X592809Y379468D01*
X592808Y378964D01*
X592794Y378514D01*
X592727Y377724D01*
X592678Y377408D01*
X592618Y377133D01*
X592550Y376909D01*
X592478Y376736D01*
X592409Y376616D01*
X592316Y376502D01*
X592302Y376455D01*
X591943Y376097D01*
X591555Y376416D01*
X591703Y376638D01*
X591765Y376950D01*
X591765Y376950D01*
Y383612D01*
X593456Y385302D01*
X593502Y385316D01*
X593616Y385409D01*
X593736Y385478D01*
X593909Y385550D01*
X594133Y385617D01*
X594407Y385678D01*
X594718Y385726D01*
X595974Y385808D01*
X596468Y385809D01*
X596468Y385809D01*
X596468Y385809D01*
X596470D01*
X596495Y385820D01*
X596500Y385819D01*
X597453Y385944D01*
X598341Y386312D01*
X599103Y386897D01*
X599688Y387660D01*
X600056Y388547D01*
X600181Y389500D01*
X600056Y390453D01*
X599688Y391340D01*
X599103Y392103D01*
X598341Y392688D01*
X597453Y393056D01*
X596500Y393181D01*
X595547Y393056D01*
X594660Y392688D01*
X593897Y392103D01*
X593312Y391340D01*
X592944Y390453D01*
X592819Y389500D01*
X592820Y389495D01*
X592809Y389470D01*
Y389469D01*
X592809Y389469D01*
X592809Y389469D01*
X592808Y388965D01*
X592794Y388514D01*
X592727Y387723D01*
X592678Y387407D01*
X592618Y387134D01*
X592550Y386909D01*
X592478Y386736D01*
X592409Y386616D01*
X592316Y386502D01*
X592302Y386455D01*
X590373Y384526D01*
X590196Y384262D01*
X590134Y383950D01*
X590134Y383950D01*
Y381548D01*
X589895Y381437D01*
X589634Y381411D01*
X589103Y382103D01*
X588341Y382688D01*
X587453Y383056D01*
X586500Y383181D01*
X585547Y383056D01*
X584659Y382688D01*
X583897Y382103D01*
X583312Y381341D01*
X582944Y380453D01*
X582819Y379500D01*
X582882Y379022D01*
X582855Y378923D01*
X582968Y378030D01*
X582990Y377659D01*
X582991Y377323D01*
X582972Y377028D01*
X582935Y376777D01*
X582884Y376569D01*
X582821Y376406D01*
X582753Y376285D01*
X582649Y376159D01*
X582644Y376143D01*
X582629Y376134D01*
X582621Y376098D01*
X574964Y368442D01*
X574457Y368634D01*
X574416Y368962D01*
X581526Y376073D01*
X581703Y376338D01*
X581765Y376650D01*
X581765Y376650D01*
Y383612D01*
X583456Y385302D01*
X583502Y385316D01*
X583616Y385409D01*
X583736Y385478D01*
X583909Y385550D01*
X584133Y385617D01*
X584407Y385678D01*
X584718Y385726D01*
X585974Y385808D01*
X586469Y385809D01*
X586469Y385809D01*
X586469Y385809D01*
X586470D01*
X586495Y385820D01*
X586500Y385819D01*
X587453Y385944D01*
X588341Y386312D01*
X589103Y386897D01*
X589688Y387660D01*
X590056Y388547D01*
X590181Y389500D01*
X590056Y390453D01*
X589688Y391340D01*
X589103Y392103D01*
X588341Y392688D01*
X587453Y393056D01*
X586500Y393181D01*
X585547Y393056D01*
X584659Y392688D01*
X583897Y392103D01*
X583312Y391340D01*
X582944Y390453D01*
X582819Y389500D01*
X582820Y389495D01*
X582809Y389470D01*
Y389469D01*
X582809Y389469D01*
X582809Y389469D01*
X582808Y388965D01*
X582794Y388514D01*
X582727Y387723D01*
X582678Y387407D01*
X582618Y387134D01*
X582550Y386909D01*
X582478Y386736D01*
X582409Y386616D01*
X582316Y386502D01*
X582302Y386455D01*
X580373Y384526D01*
X580196Y384262D01*
X580134Y383950D01*
X580134Y383950D01*
Y381548D01*
X579895Y381437D01*
X579634Y381411D01*
X579103Y382103D01*
X578340Y382688D01*
X577453Y383056D01*
X576500Y383181D01*
X575547Y383056D01*
X574659Y382688D01*
X573897Y382103D01*
X573312Y381341D01*
X572816Y381449D01*
Y384662D01*
X573455Y385302D01*
X573502Y385316D01*
X573616Y385409D01*
X573736Y385478D01*
X573909Y385550D01*
X574133Y385617D01*
X574407Y385678D01*
X574718Y385726D01*
X575974Y385808D01*
X576469Y385809D01*
X576469Y385809D01*
X576469Y385809D01*
X576470D01*
X576495Y385820D01*
X576500Y385819D01*
X577453Y385944D01*
X578340Y386312D01*
X579103Y386897D01*
X579688Y387660D01*
X580056Y388547D01*
X580181Y389500D01*
X580056Y390453D01*
X579688Y391340D01*
X579103Y392103D01*
X578340Y392688D01*
X577453Y393056D01*
X576500Y393181D01*
X575547Y393056D01*
X574659Y392688D01*
X573897Y392103D01*
X573312Y391340D01*
X572944Y390453D01*
X572819Y389500D01*
X572820Y389495D01*
X572809Y389470D01*
Y389469D01*
X572809Y389469D01*
X572809Y389469D01*
X572808Y388965D01*
X572794Y388514D01*
X572727Y387723D01*
X572678Y387407D01*
X572617Y387134D01*
X572550Y386909D01*
X572478Y386736D01*
X572409Y386616D01*
X572316Y386502D01*
X572302Y386455D01*
X571423Y385577D01*
X571246Y385312D01*
X571184Y385000D01*
X571184Y385000D01*
Y378838D01*
X570387Y378041D01*
X569963Y378324D01*
X570056Y378547D01*
X570181Y379500D01*
X570056Y380453D01*
X569688Y381341D01*
X569103Y382103D01*
X568340Y382688D01*
X567453Y383056D01*
X566500Y383181D01*
X565547Y383056D01*
X564660Y382688D01*
X563897Y382103D01*
X563312Y381341D01*
X562944Y380453D01*
X562819Y379500D01*
X562944Y378547D01*
X563312Y377660D01*
X563492Y377425D01*
X563513Y377333D01*
X564128Y376461D01*
X564596Y375736D01*
X564923Y375153D01*
X565028Y374931D01*
X565097Y374750D01*
X565130Y374626D01*
X565143Y374510D01*
X565165Y374469D01*
Y365273D01*
X564724Y365038D01*
X564656Y365084D01*
X564000Y365214D01*
X563728Y365160D01*
X563427Y365610D01*
X563584Y365844D01*
X563714Y366500D01*
X563584Y367156D01*
X563212Y367712D01*
X562656Y368084D01*
X562000Y368214D01*
X561344Y368084D01*
X560788Y367712D01*
X560516Y367304D01*
X560016Y367456D01*
Y370062D01*
X561415Y371462D01*
X561415Y371462D01*
X561592Y371726D01*
X561654Y372039D01*
Y383501D01*
X563455Y385302D01*
X563502Y385316D01*
X563616Y385409D01*
X563736Y385478D01*
X563909Y385550D01*
X564133Y385617D01*
X564407Y385678D01*
X564718Y385726D01*
X565974Y385808D01*
X566468Y385809D01*
X566468Y385809D01*
X566468Y385809D01*
X566470D01*
X566495Y385820D01*
X566500Y385819D01*
X567453Y385944D01*
X568340Y386312D01*
X569103Y386897D01*
X569688Y387660D01*
X570056Y388547D01*
X570181Y389500D01*
X570056Y390453D01*
X569688Y391340D01*
X569103Y392103D01*
X568340Y392688D01*
X567453Y393056D01*
X566500Y393181D01*
X565547Y393056D01*
X564660Y392688D01*
X563897Y392103D01*
X563312Y391340D01*
X562944Y390453D01*
X562819Y389500D01*
X562820Y389495D01*
X562809Y389470D01*
Y389469D01*
X562809Y389469D01*
X562809Y389469D01*
X562808Y388965D01*
X562794Y388514D01*
X562727Y387723D01*
X562678Y387407D01*
X562617Y387134D01*
X562550Y386909D01*
X562478Y386736D01*
X562409Y386616D01*
X562316Y386502D01*
X562302Y386455D01*
X560262Y384415D01*
X560085Y384151D01*
X560023Y383839D01*
X560023Y383839D01*
Y381725D01*
X559523Y381556D01*
X559103Y382103D01*
X558341Y382688D01*
X557453Y383056D01*
X556500Y383181D01*
X555547Y383056D01*
X554660Y382688D01*
X553897Y382103D01*
X553312Y381341D01*
X552816Y381449D01*
Y384662D01*
X553455Y385302D01*
X553502Y385316D01*
X553616Y385409D01*
X553736Y385478D01*
X553909Y385550D01*
X554133Y385617D01*
X554407Y385678D01*
X554718Y385726D01*
X555974Y385808D01*
X556468Y385809D01*
X556468Y385809D01*
X556468Y385809D01*
X556470D01*
X556495Y385820D01*
X556500Y385819D01*
X557453Y385944D01*
X558341Y386312D01*
X559103Y386897D01*
X559688Y387660D01*
X560056Y388547D01*
X560181Y389500D01*
X560056Y390453D01*
X559688Y391340D01*
X559103Y392103D01*
X558341Y392688D01*
X557453Y393056D01*
X556500Y393181D01*
X555547Y393056D01*
X554660Y392688D01*
X553897Y392103D01*
X553312Y391340D01*
X552944Y390453D01*
X552819Y389500D01*
X552820Y389495D01*
X552809Y389470D01*
Y389469D01*
X552809Y389469D01*
X552809Y389469D01*
X552808Y388965D01*
X552794Y388514D01*
X552727Y387723D01*
X552678Y387407D01*
X552618Y387134D01*
X552550Y386909D01*
X552478Y386736D01*
X552409Y386616D01*
X552316Y386502D01*
X552302Y386455D01*
X551423Y385577D01*
X551246Y385312D01*
X551184Y385000D01*
X551184Y385000D01*
Y361047D01*
X551184Y361047D01*
X551246Y360735D01*
X551423Y360471D01*
X554210Y357684D01*
X554202Y357659D01*
X553639Y357514D01*
X547316Y363838D01*
Y374379D01*
X547338Y374421D01*
X547353Y374568D01*
X547389Y374702D01*
X547461Y374874D01*
X547572Y375081D01*
X547723Y375318D01*
X547908Y375572D01*
X548738Y376517D01*
X549088Y376869D01*
X549099Y376894D01*
X549103Y376897D01*
X549688Y377660D01*
X550056Y378547D01*
X550181Y379500D01*
X550056Y380453D01*
X549688Y381341D01*
X549103Y382103D01*
X548341Y382688D01*
X547453Y383056D01*
X546500Y383181D01*
X545547Y383056D01*
X544660Y382688D01*
X543897Y382103D01*
X543312Y381341D01*
X542944Y380453D01*
X542819Y379500D01*
X542944Y378547D01*
X543312Y377660D01*
X543897Y376897D01*
X543901Y376894D01*
X543912Y376869D01*
X544268Y376511D01*
X544577Y376182D01*
X545088Y375576D01*
X545277Y375318D01*
X545428Y375081D01*
X545539Y374874D01*
X545611Y374701D01*
X545647Y374568D01*
X545661Y374421D01*
X545684Y374379D01*
Y363676D01*
X545214Y363451D01*
X545203Y363450D01*
X542316Y366338D01*
Y384162D01*
X543456Y385302D01*
X543502Y385316D01*
X543616Y385409D01*
X543736Y385478D01*
X543909Y385550D01*
X544133Y385617D01*
X544407Y385678D01*
X544718Y385726D01*
X545974Y385808D01*
X546468Y385809D01*
X546468Y385809D01*
X546468Y385809D01*
X546470D01*
X546495Y385820D01*
X546500Y385819D01*
X547453Y385944D01*
X548341Y386312D01*
X549103Y386897D01*
X549688Y387660D01*
X550056Y388547D01*
X550181Y389500D01*
X550056Y390453D01*
X549688Y391340D01*
X549103Y392103D01*
X548341Y392688D01*
X547453Y393056D01*
X546500Y393181D01*
X545547Y393056D01*
X544660Y392688D01*
X543897Y392103D01*
X543312Y391340D01*
X542944Y390453D01*
X542819Y389500D01*
X542820Y389495D01*
X542809Y389470D01*
Y389469D01*
X542809Y389469D01*
X542809Y389469D01*
X542808Y388965D01*
X542794Y388514D01*
X542727Y387723D01*
X542678Y387407D01*
X542618Y387134D01*
X542550Y386909D01*
X542478Y386736D01*
X542409Y386616D01*
X542316Y386502D01*
X542302Y386455D01*
X540923Y385077D01*
X540746Y384812D01*
X540684Y384500D01*
X540684Y384500D01*
Y366000D01*
X540684Y366000D01*
X540746Y365688D01*
X540923Y365423D01*
X544311Y362036D01*
X544031Y361608D01*
X543500Y361714D01*
X542844Y361584D01*
X542288Y361212D01*
X541916Y360656D01*
X541786Y360000D01*
X541916Y359344D01*
X542288Y358788D01*
X542844Y358416D01*
X543500Y358286D01*
X544156Y358416D01*
X544689Y358772D01*
X544721Y358785D01*
X544813Y358875D01*
X544893Y358945D01*
X544968Y359003D01*
X545039Y359051D01*
X545104Y359088D01*
X545163Y359116D01*
X545212Y359134D01*
X551153Y353193D01*
X551064Y352913D01*
X550938Y352702D01*
X550344Y352584D01*
X549788Y352212D01*
X549416Y351656D01*
X549286Y351000D01*
X549416Y350344D01*
X549028Y350026D01*
X537316Y361738D01*
Y374379D01*
X537338Y374421D01*
X537353Y374568D01*
X537389Y374702D01*
X537461Y374874D01*
X537572Y375081D01*
X537723Y375318D01*
X537909Y375572D01*
X538738Y376517D01*
X539088Y376869D01*
X539099Y376894D01*
X539103Y376897D01*
X539688Y377660D01*
X540056Y378547D01*
X540181Y379500D01*
X540056Y380453D01*
X539688Y381341D01*
X539103Y382103D01*
X538341Y382688D01*
X537453Y383056D01*
X536500Y383181D01*
X535547Y383056D01*
X534659Y382688D01*
X533897Y382103D01*
X533312Y381341D01*
X532944Y380453D01*
X532819Y379500D01*
X532944Y378547D01*
X533312Y377660D01*
X533897Y376897D01*
X533901Y376894D01*
X533912Y376869D01*
X534268Y376511D01*
X534577Y376182D01*
X535088Y375576D01*
X535277Y375318D01*
X535428Y375081D01*
X535539Y374874D01*
X535611Y374701D01*
X535647Y374568D01*
X535662Y374421D01*
X535684Y374379D01*
Y361676D01*
X535184Y361469D01*
X532316Y364338D01*
Y384162D01*
X533456Y385302D01*
X533502Y385316D01*
X533616Y385409D01*
X533736Y385478D01*
X533909Y385550D01*
X534133Y385617D01*
X534407Y385678D01*
X534718Y385726D01*
X535974Y385808D01*
X536469Y385809D01*
X536469Y385809D01*
X536469Y385809D01*
X536470D01*
X536495Y385820D01*
X536500Y385819D01*
X537453Y385944D01*
X538341Y386312D01*
X539103Y386897D01*
X539688Y387660D01*
X540056Y388547D01*
X540181Y389500D01*
X540056Y390453D01*
X539688Y391340D01*
X539103Y392103D01*
X538341Y392688D01*
X537453Y393056D01*
X536500Y393181D01*
X535547Y393056D01*
X534659Y392688D01*
X533897Y392103D01*
X533312Y391340D01*
X532944Y390453D01*
X532819Y389500D01*
X532820Y389495D01*
X532809Y389470D01*
Y389469D01*
X532809Y389469D01*
X532809Y389469D01*
X532808Y388965D01*
X532794Y388514D01*
X532727Y387723D01*
X532678Y387407D01*
X532618Y387134D01*
X532550Y386909D01*
X532478Y386736D01*
X532409Y386616D01*
X532316Y386502D01*
X532302Y386455D01*
X530923Y385077D01*
X530746Y384812D01*
X530684Y384500D01*
X530684Y384500D01*
Y383931D01*
X530400Y383741D01*
X506300D01*
X505917Y383583D01*
X505917Y383583D01*
X478417Y356083D01*
X478259Y355700D01*
X478259Y355700D01*
Y348200D01*
X478417Y347817D01*
X478800Y347659D01*
X494760D01*
X494997Y347159D01*
X494896Y347035D01*
X492468D01*
Y344976D01*
X492468Y344657D01*
X492468D01*
Y344476D01*
X492468D01*
Y342417D01*
X492468Y342098D01*
X492468Y341598D01*
Y339858D01*
X492468Y339539D01*
X492468Y339039D01*
Y337299D01*
X491968D01*
Y336841D01*
X490000D01*
X489617Y336683D01*
X489459Y336300D01*
Y331041D01*
X480100D01*
X479717Y330883D01*
X479559Y330500D01*
Y322400D01*
X479717Y322017D01*
X480100Y321859D01*
X511459D01*
Y311587D01*
X511457Y311583D01*
X511380Y311000D01*
X512000D01*
Y322400D01*
X480100D01*
Y330500D01*
X490000D01*
Y336300D01*
X502000D01*
X502100Y336400D01*
Y330500D01*
X522500D01*
X528000Y336000D01*
X541000D01*
Y329500D01*
X533900Y322400D01*
X531000D01*
Y306000D01*
X512000D01*
Y310000D01*
X511380D01*
X511457Y309417D01*
X511459Y309413D01*
Y306000D01*
X511617Y305617D01*
X512000Y305459D01*
X531000D01*
X531383Y305617D01*
X531541Y306000D01*
Y309214D01*
X532041Y309313D01*
X532312Y308660D01*
X532897Y307897D01*
X533660Y307312D01*
X534547Y306944D01*
X535500Y306819D01*
X536453Y306944D01*
X537340Y307312D01*
X538103Y307897D01*
X538688Y308660D01*
X539184Y308551D01*
Y305338D01*
X538545Y304698D01*
X538498Y304684D01*
X538384Y304591D01*
X538264Y304522D01*
X538091Y304450D01*
X537867Y304382D01*
X537593Y304322D01*
X537282Y304274D01*
X536026Y304192D01*
X535532Y304191D01*
X535532Y304191D01*
X535532Y304191D01*
X535530D01*
X535505Y304180D01*
X535500Y304181D01*
X534547Y304056D01*
X533660Y303688D01*
X532897Y303103D01*
X532312Y302341D01*
X531944Y301453D01*
X531819Y300500D01*
X531944Y299547D01*
X532312Y298659D01*
X532897Y297897D01*
X533660Y297312D01*
X534547Y296944D01*
X535500Y296819D01*
X536453Y296944D01*
X537340Y297312D01*
X538103Y297897D01*
X538688Y298659D01*
X539056Y299547D01*
X539181Y300500D01*
X539180Y300505D01*
X539191Y300530D01*
Y300532D01*
X539191Y300532D01*
X539191Y300532D01*
X539192Y301035D01*
X539206Y301486D01*
X539273Y302276D01*
X539322Y302592D01*
X539383Y302867D01*
X539450Y303091D01*
X539522Y303264D01*
X539591Y303384D01*
X539684Y303498D01*
X539698Y303544D01*
X540577Y304423D01*
X540754Y304688D01*
X540816Y305000D01*
X540816Y305000D01*
Y320162D01*
X544184Y323531D01*
X544684Y323324D01*
Y315621D01*
X544662Y315579D01*
X544647Y315432D01*
X544611Y315298D01*
X544539Y315125D01*
X544428Y314919D01*
X544277Y314682D01*
X544092Y314428D01*
X543261Y313483D01*
X542912Y313131D01*
X542901Y313106D01*
X542897Y313103D01*
X542312Y312340D01*
X541944Y311453D01*
X541819Y310500D01*
X541944Y309547D01*
X542312Y308660D01*
X542897Y307897D01*
X543659Y307312D01*
X544547Y306944D01*
X545500Y306819D01*
X546453Y306944D01*
X547340Y307312D01*
X548103Y307897D01*
X548688Y308660D01*
X549056Y309547D01*
X549181Y310500D01*
X549056Y311453D01*
X548688Y312340D01*
X548103Y313103D01*
X548099Y313106D01*
X548088Y313131D01*
X547732Y313489D01*
X547423Y313818D01*
X546912Y314424D01*
X546723Y314682D01*
X546572Y314919D01*
X546461Y315125D01*
X546389Y315299D01*
X546353Y315432D01*
X546339Y315579D01*
X546316Y315621D01*
Y332662D01*
X549184Y335531D01*
X549684Y335324D01*
Y305838D01*
X548545Y304698D01*
X548498Y304684D01*
X548384Y304591D01*
X548264Y304522D01*
X548091Y304450D01*
X547867Y304382D01*
X547593Y304322D01*
X547282Y304274D01*
X546026Y304192D01*
X545532Y304191D01*
X545532Y304191D01*
X545532Y304191D01*
X545530D01*
X545505Y304180D01*
X545500Y304181D01*
X544547Y304056D01*
X543659Y303688D01*
X542897Y303103D01*
X542312Y302341D01*
X541944Y301453D01*
X541819Y300500D01*
X541944Y299547D01*
X542312Y298659D01*
X542897Y297897D01*
X543659Y297312D01*
X544547Y296944D01*
X545500Y296819D01*
X546453Y296944D01*
X547340Y297312D01*
X548103Y297897D01*
X548688Y298659D01*
X549056Y299547D01*
X549181Y300500D01*
X549180Y300505D01*
X549191Y300530D01*
Y300532D01*
X549191Y300532D01*
X549191Y300532D01*
X549192Y301035D01*
X549206Y301486D01*
X549273Y302276D01*
X549322Y302592D01*
X549382Y302867D01*
X549450Y303091D01*
X549522Y303264D01*
X549591Y303384D01*
X549684Y303498D01*
X549698Y303545D01*
X551077Y304923D01*
X551077Y304923D01*
X551254Y305188D01*
X551316Y305500D01*
X551316Y305500D01*
Y314528D01*
X551816Y314626D01*
X551923Y314465D01*
X552136Y314253D01*
X552150Y314205D01*
X552263Y314070D01*
X552327Y313955D01*
X552378Y313811D01*
X552411Y313634D01*
X552422Y313419D01*
X552408Y313167D01*
X552365Y312878D01*
X552292Y312556D01*
X552187Y312200D01*
X552046Y311801D01*
X552051Y311710D01*
X551944Y311453D01*
X551819Y310500D01*
X551944Y309547D01*
X552312Y308660D01*
X552897Y307897D01*
X553659Y307312D01*
X554547Y306944D01*
X555500Y306819D01*
X556453Y306944D01*
X557340Y307312D01*
X558103Y307897D01*
X558688Y308660D01*
X559056Y309547D01*
X559181Y310500D01*
X559056Y311453D01*
X558688Y312340D01*
X558103Y313103D01*
X557340Y313688D01*
X556827Y313901D01*
X556748Y313973D01*
X556747Y313973D01*
X556746Y313974D01*
X555099Y314575D01*
X553755Y315108D01*
X553590Y315184D01*
X553504Y315229D01*
X553462Y315259D01*
X553429Y315267D01*
X553316Y315380D01*
Y335562D01*
X553927Y336173D01*
X554467Y336006D01*
X554485Y335915D01*
X554682Y335619D01*
X554978Y335422D01*
X555045Y335408D01*
X555111Y335364D01*
X555155Y335324D01*
X555199Y335263D01*
X555287Y335072D01*
X555327Y334942D01*
X555326Y334853D01*
X555315Y334832D01*
X555186Y334624D01*
X555107Y334513D01*
X555083Y334405D01*
X554916Y334156D01*
X554786Y333500D01*
X554916Y332844D01*
X555288Y332288D01*
X555844Y331916D01*
X556500Y331786D01*
X556952Y331876D01*
X557199Y331415D01*
X556923Y331140D01*
X556746Y330875D01*
X556684Y330563D01*
X556684Y330563D01*
Y325062D01*
X556649Y325055D01*
X555928Y324572D01*
X555445Y323851D01*
X555376Y323500D01*
X557500D01*
Y323000D01*
X558000D01*
Y320876D01*
X558351Y320945D01*
X559072Y321427D01*
X559259Y321707D01*
X559939Y321826D01*
X560023Y321765D01*
Y306176D01*
X558545Y304698D01*
X558498Y304684D01*
X558384Y304591D01*
X558264Y304522D01*
X558091Y304450D01*
X557867Y304382D01*
X557593Y304322D01*
X557282Y304274D01*
X556026Y304192D01*
X555532Y304191D01*
X555532Y304191D01*
X555532Y304191D01*
X555530D01*
X555505Y304180D01*
X555500Y304181D01*
X554547Y304056D01*
X553659Y303688D01*
X552897Y303103D01*
X552312Y302341D01*
X551944Y301453D01*
X551819Y300500D01*
X551944Y299547D01*
X552312Y298659D01*
X552897Y297897D01*
X553659Y297312D01*
X554547Y296944D01*
X555500Y296819D01*
X556453Y296944D01*
X557340Y297312D01*
X558103Y297897D01*
X558688Y298659D01*
X559056Y299547D01*
X559181Y300500D01*
X559180Y300505D01*
X559191Y300530D01*
Y300532D01*
X559191Y300532D01*
X559191Y300532D01*
X559192Y301035D01*
X559206Y301486D01*
X559273Y302276D01*
X559322Y302592D01*
X559382Y302867D01*
X559450Y303091D01*
X559522Y303264D01*
X559591Y303384D01*
X559684Y303498D01*
X559698Y303545D01*
X561415Y305262D01*
X561415Y305262D01*
X561592Y305526D01*
X561654Y305839D01*
Y308941D01*
X562154Y309040D01*
X562312Y308660D01*
X562897Y307897D01*
X563659Y307312D01*
X564547Y306944D01*
X565500Y306819D01*
X566453Y306944D01*
X567341Y307312D01*
X568103Y307897D01*
X568688Y308660D01*
X569184Y308551D01*
Y305338D01*
X568544Y304698D01*
X568498Y304684D01*
X568384Y304591D01*
X568264Y304522D01*
X568091Y304450D01*
X567867Y304382D01*
X567593Y304322D01*
X567282Y304274D01*
X566026Y304192D01*
X565531Y304191D01*
X565531Y304191D01*
X565531Y304191D01*
X565530D01*
X565505Y304180D01*
X565500Y304181D01*
X564547Y304056D01*
X563659Y303688D01*
X562897Y303103D01*
X562312Y302341D01*
X561944Y301453D01*
X561819Y300500D01*
X561944Y299547D01*
X562312Y298659D01*
X562897Y297897D01*
X563659Y297312D01*
X564547Y296944D01*
X565500Y296819D01*
X566453Y296944D01*
X567341Y297312D01*
X568103Y297897D01*
X568688Y298659D01*
X569056Y299547D01*
X569181Y300500D01*
X569180Y300505D01*
X569191Y300530D01*
Y300532D01*
X569191Y300532D01*
X569191Y300532D01*
X569192Y301035D01*
X569206Y301486D01*
X569273Y302276D01*
X569322Y302592D01*
X569382Y302867D01*
X569450Y303091D01*
X569522Y303264D01*
X569591Y303384D01*
X569684Y303498D01*
X569698Y303544D01*
X570577Y304423D01*
X570754Y304688D01*
X570816Y305000D01*
X570816Y305000D01*
Y323524D01*
X571316Y323731D01*
X574684Y320362D01*
Y315621D01*
X574661Y315579D01*
X574647Y315432D01*
X574611Y315298D01*
X574539Y315125D01*
X574428Y314919D01*
X574277Y314682D01*
X574091Y314428D01*
X573261Y313483D01*
X572912Y313131D01*
X572901Y313106D01*
X572897Y313103D01*
X572312Y312340D01*
X571944Y311453D01*
X571819Y310500D01*
X571944Y309547D01*
X572312Y308660D01*
X572897Y307897D01*
X573660Y307312D01*
X574547Y306944D01*
X575500Y306819D01*
X576453Y306944D01*
X577341Y307312D01*
X578103Y307897D01*
X578688Y308660D01*
X579056Y309547D01*
X579181Y310500D01*
X579056Y311453D01*
X578688Y312340D01*
X578103Y313103D01*
X578099Y313106D01*
X578088Y313131D01*
X577732Y313489D01*
X577423Y313818D01*
X576912Y314424D01*
X576723Y314682D01*
X576572Y314919D01*
X576461Y315125D01*
X576389Y315299D01*
X576353Y315432D01*
X576338Y315579D01*
X576316Y315621D01*
Y320524D01*
X576786Y320749D01*
X576797Y320750D01*
X579684Y317862D01*
Y305838D01*
X578545Y304698D01*
X578498Y304684D01*
X578384Y304591D01*
X578264Y304522D01*
X578091Y304450D01*
X577867Y304382D01*
X577593Y304322D01*
X577282Y304274D01*
X576026Y304192D01*
X575531Y304191D01*
X575531Y304191D01*
X575531Y304191D01*
X575530D01*
X575505Y304180D01*
X575500Y304181D01*
X574547Y304056D01*
X573660Y303688D01*
X572897Y303103D01*
X572312Y302341D01*
X571944Y301453D01*
X571819Y300500D01*
X571944Y299547D01*
X572312Y298659D01*
X572897Y297897D01*
X573660Y297312D01*
X574547Y296944D01*
X575500Y296819D01*
X576453Y296944D01*
X577341Y297312D01*
X578103Y297897D01*
X578688Y298659D01*
X579056Y299547D01*
X579181Y300500D01*
X579180Y300505D01*
X579191Y300530D01*
Y300532D01*
X579191Y300532D01*
X579191Y300532D01*
X579192Y301035D01*
X579206Y301486D01*
X579273Y302276D01*
X579322Y302592D01*
X579383Y302867D01*
X579450Y303091D01*
X579522Y303264D01*
X579591Y303384D01*
X579684Y303498D01*
X579698Y303545D01*
X581077Y304923D01*
X581077Y304923D01*
X581254Y305188D01*
X581316Y305500D01*
X581316Y305500D01*
Y318200D01*
X581254Y318512D01*
X581077Y318777D01*
X581077Y318777D01*
X573046Y326807D01*
X573066Y326941D01*
X573081Y326968D01*
X573625Y327301D01*
X573949Y327237D01*
X574605Y327367D01*
X575161Y327739D01*
X575533Y328295D01*
X575588Y328571D01*
X576130Y328735D01*
X577356Y327509D01*
X577349Y327466D01*
X577336Y327417D01*
X577316Y327363D01*
X577288Y327304D01*
X577251Y327239D01*
X577203Y327168D01*
X577145Y327093D01*
X577075Y327013D01*
X576985Y326921D01*
X576972Y326888D01*
X576616Y326356D01*
X576486Y325700D01*
X576616Y325044D01*
X576988Y324488D01*
X577544Y324116D01*
X578200Y323986D01*
X578856Y324116D01*
X579412Y324488D01*
X579784Y325044D01*
X579914Y325700D01*
X579808Y326231D01*
X580236Y326511D01*
X584684Y322062D01*
Y315621D01*
X584661Y315579D01*
X584647Y315432D01*
X584611Y315298D01*
X584539Y315125D01*
X584428Y314919D01*
X584277Y314682D01*
X584092Y314428D01*
X583261Y313483D01*
X582912Y313131D01*
X582901Y313106D01*
X582897Y313103D01*
X582312Y312340D01*
X581944Y311453D01*
X581819Y310500D01*
X581944Y309547D01*
X582312Y308660D01*
X582897Y307897D01*
X583660Y307312D01*
X584547Y306944D01*
X585500Y306819D01*
X586453Y306944D01*
X587340Y307312D01*
X588103Y307897D01*
X588688Y308660D01*
X589056Y309547D01*
X589181Y310500D01*
X589056Y311453D01*
X588688Y312340D01*
X588103Y313103D01*
X588099Y313106D01*
X588088Y313131D01*
X587732Y313489D01*
X587423Y313818D01*
X586912Y314424D01*
X586723Y314682D01*
X586572Y314919D01*
X586461Y315125D01*
X586389Y315299D01*
X586353Y315432D01*
X586339Y315579D01*
X586316Y315621D01*
Y321824D01*
X586816Y322031D01*
X589684Y319162D01*
Y305838D01*
X588545Y304698D01*
X588498Y304684D01*
X588384Y304591D01*
X588264Y304522D01*
X588091Y304450D01*
X587867Y304382D01*
X587593Y304322D01*
X587282Y304274D01*
X586026Y304192D01*
X585532Y304191D01*
X585532Y304191D01*
X585532Y304191D01*
X585530D01*
X585505Y304180D01*
X585500Y304181D01*
X584547Y304056D01*
X583660Y303688D01*
X582897Y303103D01*
X582312Y302341D01*
X581944Y301453D01*
X581819Y300500D01*
X581944Y299547D01*
X582312Y298659D01*
X582897Y297897D01*
X583660Y297312D01*
X584547Y296944D01*
X585500Y296819D01*
X586453Y296944D01*
X587340Y297312D01*
X588103Y297897D01*
X588688Y298659D01*
X589056Y299547D01*
X589181Y300500D01*
X589180Y300505D01*
X589191Y300530D01*
Y300532D01*
X589191Y300532D01*
X589191Y300532D01*
X589192Y301035D01*
X589206Y301486D01*
X589273Y302276D01*
X589322Y302592D01*
X589383Y302867D01*
X589450Y303091D01*
X589522Y303264D01*
X589591Y303384D01*
X589684Y303498D01*
X589698Y303545D01*
X591077Y304923D01*
X591077Y304923D01*
X591254Y305188D01*
X591316Y305500D01*
X591316Y305500D01*
Y319500D01*
X591254Y319812D01*
X591077Y320077D01*
X591077Y320077D01*
X580514Y330639D01*
X580659Y331202D01*
X580684Y331209D01*
X594684Y317209D01*
Y315621D01*
X594662Y315579D01*
X594647Y315432D01*
X594611Y315298D01*
X594539Y315125D01*
X594428Y314919D01*
X594277Y314682D01*
X594092Y314428D01*
X593261Y313483D01*
X592912Y313131D01*
X592901Y313106D01*
X592897Y313103D01*
X592312Y312340D01*
X591944Y311453D01*
X591819Y310500D01*
X591944Y309547D01*
X592312Y308660D01*
X592897Y307897D01*
X593659Y307312D01*
X594547Y306944D01*
X595500Y306819D01*
X596453Y306944D01*
X597340Y307312D01*
X598103Y307897D01*
X598688Y308660D01*
X599184Y308551D01*
Y305338D01*
X598545Y304698D01*
X598498Y304684D01*
X598384Y304591D01*
X598264Y304522D01*
X598091Y304450D01*
X597867Y304382D01*
X597593Y304322D01*
X597282Y304274D01*
X596026Y304192D01*
X595532Y304191D01*
X595532Y304191D01*
X595532Y304191D01*
X595530D01*
X595505Y304180D01*
X595500Y304181D01*
X594547Y304056D01*
X593659Y303688D01*
X592897Y303103D01*
X592312Y302341D01*
X591944Y301453D01*
X591819Y300500D01*
X591944Y299547D01*
X592312Y298659D01*
X592897Y297897D01*
X593659Y297312D01*
X594547Y296944D01*
X595500Y296819D01*
X596453Y296944D01*
X597340Y297312D01*
X598103Y297897D01*
X598688Y298659D01*
X599056Y299547D01*
X599181Y300500D01*
X599180Y300505D01*
X599191Y300530D01*
Y300532D01*
X599191Y300532D01*
X599191Y300532D01*
X599192Y301035D01*
X599206Y301486D01*
X599273Y302276D01*
X599322Y302592D01*
X599382Y302867D01*
X599450Y303091D01*
X599522Y303264D01*
X599591Y303384D01*
X599684Y303498D01*
X599698Y303544D01*
X600577Y304423D01*
X600754Y304688D01*
X600816Y305000D01*
X600816Y305000D01*
Y316000D01*
X600754Y316312D01*
X600605Y316534D01*
X600994Y316853D01*
X603608Y314239D01*
X603640Y314176D01*
X603645Y314040D01*
X603542Y313598D01*
X602897Y313103D01*
X602312Y312340D01*
X601944Y311453D01*
X601819Y310500D01*
X601944Y309547D01*
X602312Y308660D01*
X602897Y307897D01*
X603659Y307312D01*
X604547Y306944D01*
X605500Y306819D01*
X606453Y306944D01*
X607340Y307312D01*
X608103Y307897D01*
X608688Y308660D01*
X609184Y308551D01*
Y305338D01*
X608544Y304698D01*
X608498Y304684D01*
X608384Y304591D01*
X608264Y304522D01*
X608091Y304450D01*
X607867Y304382D01*
X607593Y304322D01*
X607282Y304274D01*
X606026Y304192D01*
X605532Y304191D01*
X605532Y304191D01*
X605532Y304191D01*
X605530D01*
X605505Y304180D01*
X605500Y304181D01*
X604547Y304056D01*
X603659Y303688D01*
X602897Y303103D01*
X602312Y302341D01*
X601944Y301453D01*
X601819Y300500D01*
X601944Y299547D01*
X602312Y298659D01*
X602897Y297897D01*
X603659Y297312D01*
X604547Y296944D01*
X605500Y296819D01*
X606453Y296944D01*
X607340Y297312D01*
X608103Y297897D01*
X608688Y298659D01*
X609056Y299547D01*
X609181Y300500D01*
X609180Y300505D01*
X609191Y300530D01*
Y300532D01*
X609191Y300532D01*
X609191Y300532D01*
X609192Y301035D01*
X609206Y301486D01*
X609273Y302276D01*
X609322Y302592D01*
X609382Y302867D01*
X609450Y303091D01*
X609522Y303264D01*
X609591Y303384D01*
X609684Y303498D01*
X609698Y303544D01*
X610577Y304423D01*
X610754Y304688D01*
X610816Y305000D01*
X610816Y305000D01*
Y312600D01*
X610816Y312600D01*
X610754Y312912D01*
X610577Y313177D01*
X610577Y313177D01*
X588892Y334862D01*
X588937Y335239D01*
X589421Y335426D01*
X611302Y313545D01*
X611316Y313498D01*
X611409Y313384D01*
X611478Y313264D01*
X611550Y313091D01*
X611618Y312867D01*
X611678Y312593D01*
X611726Y312282D01*
X611808Y311026D01*
X611809Y310531D01*
X611809Y310531D01*
X611809Y310531D01*
Y310530D01*
X611820Y310505D01*
X611819Y310500D01*
X611944Y309547D01*
X612312Y308660D01*
X612897Y307897D01*
X613659Y307312D01*
X614547Y306944D01*
X615500Y306819D01*
X616453Y306944D01*
X617341Y307312D01*
X618103Y307897D01*
X618688Y308660D01*
X619056Y309547D01*
X619181Y310500D01*
X619056Y311453D01*
X618688Y312340D01*
X618103Y313103D01*
X617341Y313688D01*
X616453Y314056D01*
X615500Y314181D01*
X615495Y314180D01*
X615470Y314191D01*
X615469D01*
X615469Y314191D01*
X615469Y314191D01*
X614964Y314192D01*
X614514Y314206D01*
X613724Y314273D01*
X613408Y314322D01*
X613133Y314383D01*
X612909Y314450D01*
X612736Y314522D01*
X612616Y314591D01*
X612502Y314684D01*
X612455Y314698D01*
X609450Y317703D01*
X609451Y317714D01*
X609676Y318184D01*
X626168D01*
X626360Y317722D01*
X625419Y316781D01*
X625087Y316285D01*
X624971Y315700D01*
Y312134D01*
X617900Y305063D01*
X617875Y305054D01*
X617681Y304875D01*
X617493Y304731D01*
X617295Y304603D01*
X617086Y304493D01*
X616895Y304414D01*
X616583Y304543D01*
X616000Y304620D01*
Y303668D01*
X616180Y303684D01*
X616484Y303733D01*
X616775Y303802D01*
X617052Y303892D01*
X617317Y304003D01*
X617568Y304135D01*
X617805Y304288D01*
X618030Y304461D01*
X618241Y304655D01*
X619655Y303241D01*
X619461Y303030D01*
X619288Y302805D01*
X619135Y302568D01*
X619003Y302317D01*
X618892Y302052D01*
X618802Y301775D01*
X618733Y301484D01*
X618684Y301180D01*
X618669Y301000D01*
X619620D01*
X619543Y301583D01*
X619414Y301895D01*
X619493Y302086D01*
X619603Y302295D01*
X619731Y302493D01*
X619875Y302681D01*
X620054Y302875D01*
X620063Y302900D01*
X627581Y310419D01*
X627913Y310915D01*
X628029Y311500D01*
Y312742D01*
X628529Y312842D01*
X628812Y312159D01*
X629397Y311397D01*
X630160Y310812D01*
X631047Y310444D01*
X632000Y310319D01*
X632953Y310444D01*
X633841Y310812D01*
X634603Y311397D01*
X635188Y312159D01*
X635556Y313047D01*
X635681Y314000D01*
X635556Y314953D01*
X635188Y315841D01*
X634603Y316603D01*
X633993Y317071D01*
X634163Y317571D01*
X637100D01*
X637685Y317687D01*
X638181Y318019D01*
X639600Y319437D01*
X639625Y319446D01*
X639819Y319625D01*
X640007Y319770D01*
X640205Y319897D01*
X640414Y320006D01*
X640605Y320087D01*
X640917Y319957D01*
X641500Y319880D01*
Y320831D01*
X641320Y320816D01*
X641016Y320767D01*
X640725Y320698D01*
X640448Y320607D01*
X640183Y320497D01*
X639932Y320365D01*
X639695Y320212D01*
X639470Y320039D01*
X639259Y319845D01*
X637845Y321259D01*
X638039Y321470D01*
X638212Y321695D01*
X638365Y321932D01*
X638497Y322183D01*
X638608Y322448D01*
X638698Y322725D01*
X638767Y323016D01*
X638816Y323320D01*
X638832Y323500D01*
X637880D01*
X637957Y322917D01*
X638087Y322605D01*
X638006Y322414D01*
X637897Y322205D01*
X637770Y322007D01*
X637625Y321819D01*
X637446Y321625D01*
X637437Y321600D01*
X636467Y320629D01*
X634424D01*
X634254Y321129D01*
X634603Y321397D01*
X635188Y322160D01*
X635556Y323047D01*
X635681Y324000D01*
X635556Y324953D01*
X635188Y325840D01*
X634603Y326603D01*
X634599Y326606D01*
X634588Y326631D01*
X634232Y326989D01*
X633923Y327318D01*
X633412Y327924D01*
X633223Y328182D01*
X633072Y328419D01*
X632961Y328625D01*
X632889Y328799D01*
X632853Y328932D01*
X632846Y329000D01*
X632853Y329068D01*
X632889Y329202D01*
X632961Y329375D01*
X633072Y329581D01*
X633223Y329818D01*
X633408Y330072D01*
X634238Y331017D01*
X634588Y331369D01*
X634599Y331394D01*
X634603Y331397D01*
X635188Y332159D01*
X635556Y333047D01*
X635681Y334000D01*
X635556Y334953D01*
X635188Y335841D01*
X634603Y336603D01*
X633841Y337188D01*
X632953Y337556D01*
X632000Y337681D01*
X631047Y337556D01*
X630160Y337188D01*
X629397Y336603D01*
X628812Y335841D01*
X628444Y334953D01*
X628319Y334000D01*
X628444Y333047D01*
X628812Y332159D01*
X629397Y331397D01*
X629401Y331394D01*
X629412Y331369D01*
X629768Y331011D01*
X630077Y330682D01*
X630588Y330076D01*
X630777Y329818D01*
X630928Y329581D01*
X631039Y329375D01*
X631111Y329202D01*
X631147Y329068D01*
X631154Y329000D01*
X631147Y328932D01*
X631111Y328798D01*
X631039Y328625D01*
X630928Y328419D01*
X630777Y328182D01*
X630591Y327928D01*
X629762Y326983D01*
X629412Y326631D01*
X629401Y326606D01*
X629397Y326603D01*
X628812Y325840D01*
X628444Y324953D01*
X628319Y324000D01*
X628320Y323995D01*
X628309Y323970D01*
Y323969D01*
X628309Y323969D01*
X628309Y323969D01*
X628308Y323464D01*
X628294Y323014D01*
X628227Y322223D01*
X628178Y321907D01*
X628118Y321634D01*
X628050Y321409D01*
X627978Y321236D01*
X627909Y321116D01*
X627816Y321002D01*
X627802Y320955D01*
X626662Y319816D01*
X622525D01*
X622031Y319832D01*
Y328706D01*
X620103D01*
X619948Y328950D01*
X619844Y329190D01*
X619851Y329234D01*
X619864Y329283D01*
X619884Y329337D01*
X619912Y329396D01*
X619949Y329461D01*
X619997Y329532D01*
X620055Y329607D01*
X620125Y329687D01*
X620215Y329779D01*
X620228Y329812D01*
X620584Y330344D01*
X620714Y331000D01*
X620584Y331656D01*
X620212Y332212D01*
X619656Y332584D01*
X619000Y332714D01*
X618344Y332584D01*
X617788Y332212D01*
X617416Y331656D01*
X617286Y331000D01*
X617416Y330344D01*
X617772Y329812D01*
X617785Y329779D01*
X617875Y329687D01*
X617945Y329607D01*
X618003Y329532D01*
X618051Y329461D01*
X618088Y329396D01*
X618116Y329337D01*
X618136Y329283D01*
X618149Y329234D01*
X618156Y329190D01*
X618052Y328950D01*
X617897Y328706D01*
X616279D01*
X608716Y336269D01*
Y368223D01*
X609112Y368488D01*
X609484Y369044D01*
X609614Y369700D01*
X609545Y370047D01*
X609897Y370482D01*
X609928Y370492D01*
X610556Y370616D01*
X610950Y370880D01*
X610988Y370884D01*
X611459Y370769D01*
X616334Y365895D01*
X616356Y365836D01*
X616436Y365753D01*
X616491Y365689D01*
X616500Y365677D01*
Y365563D01*
X616483Y365521D01*
X616496Y365489D01*
X616487Y365455D01*
X616500Y365432D01*
Y363882D01*
X617500Y362882D01*
X619500D01*
X620500Y363882D01*
Y365882D01*
X619500Y366882D01*
X617950D01*
X617927Y366895D01*
X617893Y366886D01*
X617861Y366899D01*
X617819Y366882D01*
X617705D01*
X617693Y366891D01*
X617629Y366946D01*
X617546Y367025D01*
X617487Y367048D01*
X616021Y368515D01*
X616189Y369054D01*
X616390Y369091D01*
X616500Y369000D01*
Y369000D01*
X620500D01*
Y373000D01*
X616500D01*
Y373000D01*
X616122Y372690D01*
X616000Y372714D01*
X615344Y372584D01*
X614788Y372212D01*
X614416Y371656D01*
X614286Y371000D01*
X614297Y370946D01*
X613836Y370700D01*
X612096Y372440D01*
X611831Y372616D01*
X611652Y372652D01*
X611539Y372704D01*
X611531Y372704D01*
X611531Y372707D01*
X611510Y372723D01*
X611484Y372856D01*
X611112Y373412D01*
X610656Y373716D01*
X610747Y374217D01*
X612032D01*
X612032Y374217D01*
X612344Y374279D01*
X612609Y374455D01*
X613455Y375302D01*
X613502Y375316D01*
X613616Y375409D01*
X613736Y375478D01*
X613909Y375550D01*
X614133Y375618D01*
X614407Y375678D01*
X614718Y375726D01*
X615974Y375808D01*
X616468Y375809D01*
X616468Y375809D01*
X616468Y375809D01*
X616470D01*
X616495Y375820D01*
X616500Y375819D01*
X617453Y375944D01*
X618340Y376312D01*
X619103Y376897D01*
X619688Y377660D01*
X620056Y378547D01*
X620181Y379500D01*
X620056Y380453D01*
X619688Y381341D01*
X619103Y382103D01*
X618340Y382688D01*
X617453Y383056D01*
X616500Y383181D01*
X615547Y383056D01*
X614660Y382688D01*
X613897Y382103D01*
X613312Y381341D01*
X612816Y381449D01*
Y384662D01*
X613674Y385521D01*
X613731Y385542D01*
X613954Y385749D01*
X614030Y385810D01*
X614088Y385850D01*
X614140D01*
X614211Y385821D01*
X614252Y385838D01*
X614295Y385828D01*
X614332Y385850D01*
X620150D01*
Y393150D01*
X612850D01*
Y387332D01*
X612828Y387295D01*
X612838Y387252D01*
X612821Y387211D01*
X612850Y387140D01*
Y387088D01*
X612814Y387036D01*
X612655Y386849D01*
X612549Y386738D01*
X612525Y386679D01*
X611423Y385577D01*
X611246Y385312D01*
X611184Y385000D01*
X611184Y385000D01*
Y379338D01*
X610585Y378739D01*
X610112Y378972D01*
X610181Y379500D01*
X610056Y380453D01*
X609688Y381341D01*
X609103Y382103D01*
X608341Y382688D01*
X607453Y383056D01*
X606500Y383181D01*
X605547Y383056D01*
X604660Y382688D01*
X603897Y382103D01*
X603312Y381341D01*
X602944Y380453D01*
X602819Y379500D01*
X602944Y378547D01*
X603312Y377660D01*
X603396Y377550D01*
X585443Y359596D01*
X584982Y359843D01*
X585013Y360000D01*
X584898Y360579D01*
X584570Y361070D01*
X584079Y361398D01*
X583500Y361513D01*
X582921Y361398D01*
X582430Y361070D01*
X582102Y360579D01*
X581987Y360000D01*
X582102Y359421D01*
X582430Y358930D01*
X582921Y358602D01*
X583500Y358487D01*
X583657Y358518D01*
X583904Y358057D01*
X583494Y357647D01*
X581705D01*
X581531Y357613D01*
X581111Y357869D01*
X581032Y357963D01*
Y358032D01*
X580963D01*
X580869Y358111D01*
X580613Y358531D01*
X580647Y358705D01*
Y360673D01*
X580624Y360791D01*
X580637Y360822D01*
X580600Y360911D01*
X580597Y360928D01*
X580606Y360954D01*
X580604Y360984D01*
X580604Y360987D01*
X580603Y360993D01*
X580578Y361414D01*
X580577Y361514D01*
X580552Y361575D01*
Y362398D01*
X584838Y366684D01*
X591000D01*
X591000Y366684D01*
X591312Y366746D01*
X591577Y366923D01*
X602077Y377423D01*
X602077Y377423D01*
X602254Y377688D01*
X602316Y378000D01*
Y384162D01*
X603455Y385302D01*
X603502Y385316D01*
X603616Y385409D01*
X603736Y385478D01*
X603909Y385550D01*
X604133Y385617D01*
X604407Y385678D01*
X604718Y385726D01*
X605974Y385808D01*
X606468Y385809D01*
X606468Y385809D01*
X606468Y385809D01*
X606470D01*
X606495Y385820D01*
X606500Y385819D01*
X607453Y385944D01*
X608341Y386312D01*
X609103Y386897D01*
X609688Y387660D01*
X610056Y388547D01*
X610181Y389500D01*
X610056Y390453D01*
X609688Y391340D01*
X609103Y392103D01*
X608341Y392688D01*
X607453Y393056D01*
X606500Y393181D01*
D02*
G37*
G36*
X526500D02*
X525547Y393056D01*
X524659Y392688D01*
X523897Y392103D01*
X523312Y391340D01*
X522944Y390453D01*
X522819Y389500D01*
X522944Y388547D01*
X523312Y387660D01*
X523897Y386897D01*
X524659Y386312D01*
X525547Y385944D01*
X526500Y385819D01*
X527453Y385944D01*
X528340Y386312D01*
X529103Y386897D01*
X529688Y387660D01*
X530056Y388547D01*
X530181Y389500D01*
X530056Y390453D01*
X529688Y391340D01*
X529103Y392103D01*
X528340Y392688D01*
X527453Y393056D01*
X526500Y393181D01*
D02*
G37*
G36*
X516500D02*
X515547Y393056D01*
X514660Y392688D01*
X513897Y392103D01*
X513312Y391340D01*
X512944Y390453D01*
X512819Y389500D01*
X512944Y388547D01*
X513312Y387660D01*
X513897Y386897D01*
X514660Y386312D01*
X515547Y385944D01*
X516500Y385819D01*
X517453Y385944D01*
X518340Y386312D01*
X519103Y386897D01*
X519688Y387660D01*
X520056Y388547D01*
X520181Y389500D01*
X520056Y390453D01*
X519688Y391340D01*
X519103Y392103D01*
X518340Y392688D01*
X517453Y393056D01*
X516500Y393181D01*
D02*
G37*
G36*
X646819Y396755D02*
X645563Y396632D01*
X644356Y396266D01*
X643243Y395671D01*
X642268Y394870D01*
X641467Y393895D01*
X640872Y392782D01*
X640506Y391575D01*
X640382Y390319D01*
X640506Y389063D01*
X640872Y387856D01*
X641467Y386743D01*
X642268Y385768D01*
X643243Y384967D01*
X644356Y384372D01*
X645563Y384006D01*
X646819Y383882D01*
X648075Y384006D01*
X649282Y384372D01*
X650395Y384967D01*
X651370Y385768D01*
X652171Y386743D01*
X652765Y387856D01*
X653132Y389063D01*
X653255Y390319D01*
X653132Y391575D01*
X652765Y392782D01*
X652171Y393895D01*
X651370Y394870D01*
X650395Y395671D01*
X649282Y396266D01*
X648075Y396632D01*
X646819Y396755D01*
D02*
G37*
G36*
X482181D02*
X480925Y396632D01*
X479718Y396266D01*
X478605Y395671D01*
X477630Y394870D01*
X476829Y393895D01*
X476235Y392782D01*
X475868Y391575D01*
X475745Y390319D01*
X475868Y389063D01*
X476235Y387856D01*
X476829Y386743D01*
X477630Y385768D01*
X478605Y384967D01*
X479718Y384372D01*
X480925Y384006D01*
X482181Y383882D01*
X483437Y384006D01*
X484644Y384372D01*
X485757Y384967D01*
X486732Y385768D01*
X487533Y386743D01*
X488128Y387856D01*
X488494Y389063D01*
X488618Y390319D01*
X488494Y391575D01*
X488128Y392782D01*
X487533Y393895D01*
X486732Y394870D01*
X485757Y395671D01*
X484644Y396266D01*
X483437Y396632D01*
X482181Y396755D01*
D02*
G37*
G36*
X635650Y377650D02*
X628350D01*
Y370350D01*
X635650D01*
Y377650D01*
D02*
G37*
G36*
X642000Y377681D02*
X641047Y377556D01*
X640160Y377188D01*
X639397Y376603D01*
X638812Y375840D01*
X638444Y374953D01*
X638319Y374000D01*
X638444Y373047D01*
X638812Y372160D01*
X639397Y371397D01*
X640160Y370812D01*
X641047Y370444D01*
X642000Y370319D01*
X642953Y370444D01*
X643841Y370812D01*
X644603Y371397D01*
X645188Y372160D01*
X645556Y373047D01*
X645681Y374000D01*
X645556Y374953D01*
X645188Y375840D01*
X644603Y376603D01*
X643841Y377188D01*
X642953Y377556D01*
X642000Y377681D01*
D02*
G37*
G36*
X642500Y368120D02*
Y364500D01*
X646120D01*
X646043Y365083D01*
X645625Y366093D01*
X644959Y366960D01*
X644093Y367625D01*
X643083Y368043D01*
X642500Y368120D01*
D02*
G37*
G36*
X641500D02*
X640917Y368043D01*
X639907Y367625D01*
X639041Y366960D01*
X638375Y366093D01*
X637957Y365083D01*
X637880Y364500D01*
X641500D01*
Y368120D01*
D02*
G37*
G36*
X622500Y363624D02*
Y362000D01*
X624124D01*
X624055Y362351D01*
X623572Y363072D01*
X622851Y363555D01*
X622500Y363624D01*
D02*
G37*
G36*
X621500D02*
X621149Y363555D01*
X620428Y363072D01*
X619945Y362351D01*
X619876Y362000D01*
X621500D01*
Y363624D01*
D02*
G37*
G36*
X632000Y367681D02*
X631047Y367556D01*
X630160Y367188D01*
X629397Y366603D01*
X628812Y365841D01*
X628444Y364953D01*
X628319Y364000D01*
X628444Y363047D01*
X628812Y362159D01*
X629397Y361397D01*
X630160Y360812D01*
X631047Y360444D01*
X632000Y360319D01*
X632953Y360444D01*
X633841Y360812D01*
X634603Y361397D01*
X635188Y362159D01*
X635556Y363047D01*
X635681Y364000D01*
X635556Y364953D01*
X635188Y365841D01*
X634603Y366603D01*
X633841Y367188D01*
X632953Y367556D01*
X632000Y367681D01*
D02*
G37*
G36*
X646120Y363500D02*
X645168D01*
X645184Y363320D01*
X645233Y363016D01*
X645302Y362725D01*
X645393Y362448D01*
X645503Y362183D01*
X645635Y361932D01*
X645788Y361695D01*
X645961Y361470D01*
X646155Y361259D01*
X644895Y359998D01*
X646460Y359098D01*
X646512Y359102D01*
X646640Y359133D01*
X646734Y359168D01*
X646793Y359208D01*
Y358906D01*
X647500Y358500D01*
X646500Y356000D01*
X646490Y356380D01*
X646460Y356720D01*
X646410Y357020D01*
X646340Y357280D01*
X646250Y357500D01*
X646140Y357680D01*
X646010Y357820D01*
X645860Y357920D01*
X645707Y357974D01*
X645007Y357998D01*
X644634Y358000D01*
Y358947D01*
X644586Y359000D01*
X644762Y359014D01*
X644889Y359057D01*
X644969Y359127D01*
X645000Y359226D01*
X644982Y359353D01*
X644917Y359509D01*
X644803Y359693D01*
X644497Y360064D01*
X644305Y360212D01*
X644068Y360365D01*
X643817Y360497D01*
X643552Y360608D01*
X643275Y360698D01*
X642984Y360767D01*
X642680Y360816D01*
X642362Y360843D01*
X642031Y360851D01*
X644681Y363500D01*
X642000D01*
X637880D01*
X637957Y362917D01*
X638375Y361907D01*
X639041Y361040D01*
X639907Y360375D01*
X640766Y360020D01*
X640667Y359520D01*
X623794D01*
X623634Y360020D01*
X624055Y360649D01*
X624124Y361000D01*
X620993D01*
X622070Y360321D01*
X622030Y360314D01*
X621984Y360297D01*
X621932Y360272D01*
X621874Y360236D01*
X621810Y360191D01*
X621663Y360072D01*
X621492Y359915D01*
X621449Y359872D01*
X621441Y359425D01*
X620294Y359413D01*
X620324Y359420D01*
X620351Y359440D01*
X620375Y359474D01*
X620396Y359521D01*
X620413Y359582D01*
X620427Y359655D01*
X620438Y359743D01*
X620451Y359957D01*
X620453Y360084D01*
X621058D01*
X620599Y360438D01*
X620674Y360515D01*
X620793Y360660D01*
X620839Y360727D01*
X620874Y360790D01*
X620900Y360850D01*
X620916Y360907D01*
X620922Y360960D01*
X620920Y361000D01*
X619876D01*
X619888Y360937D01*
X619540Y360448D01*
X619517Y360437D01*
X619000D01*
Y356000D01*
X622453D01*
Y357459D01*
X622455Y357459D01*
X622503Y357480D01*
X629719D01*
X629889Y356980D01*
X629397Y356603D01*
X628812Y355840D01*
X628444Y354953D01*
X628319Y354000D01*
X628444Y353047D01*
X628812Y352160D01*
X629397Y351397D01*
X630160Y350812D01*
X631047Y350444D01*
X632000Y350319D01*
X632953Y350444D01*
X633841Y350812D01*
X634603Y351397D01*
X635188Y352160D01*
X635556Y353047D01*
X635681Y354000D01*
X635556Y354953D01*
X635188Y355840D01*
X634603Y356603D01*
X634111Y356980D01*
X634281Y357480D01*
X639719D01*
X639889Y356980D01*
X639397Y356603D01*
X638812Y355840D01*
X638444Y354953D01*
X638319Y354000D01*
X638444Y353047D01*
X638812Y352160D01*
X639397Y351397D01*
X640160Y350812D01*
X641047Y350444D01*
X642000Y350319D01*
X642953Y350444D01*
X643841Y350812D01*
X644603Y351397D01*
X645188Y352160D01*
X645471Y352842D01*
X645971Y352743D01*
Y350133D01*
X644400Y348563D01*
X644375Y348554D01*
X644181Y348375D01*
X643993Y348231D01*
X643795Y348103D01*
X643586Y347993D01*
X643395Y347914D01*
X643083Y348043D01*
X642500Y348120D01*
Y347168D01*
X642680Y347184D01*
X642984Y347233D01*
X643275Y347302D01*
X643552Y347393D01*
X643817Y347503D01*
X644068Y347635D01*
X644305Y347788D01*
X644530Y347961D01*
X644741Y348155D01*
X646155Y346741D01*
X645961Y346530D01*
X645788Y346305D01*
X645635Y346068D01*
X645503Y345817D01*
X645393Y345552D01*
X645302Y345275D01*
X645233Y344984D01*
X645184Y344680D01*
X645168Y344500D01*
X646120D01*
X646043Y345083D01*
X645914Y345395D01*
X645994Y345586D01*
X646103Y345795D01*
X646231Y345993D01*
X646375Y346181D01*
X646554Y346375D01*
X646563Y346400D01*
X648581Y348419D01*
X648913Y348915D01*
X649029Y349500D01*
Y358500D01*
X648913Y359085D01*
X648581Y359581D01*
X646563Y361600D01*
X646554Y361625D01*
X646375Y361819D01*
X646231Y362007D01*
X646103Y362205D01*
X645994Y362414D01*
X645914Y362605D01*
X646043Y362917D01*
X646120Y363500D01*
D02*
G37*
G36*
X618000Y360437D02*
X614547D01*
Y356000D01*
X618000D01*
Y360437D01*
D02*
G37*
G36*
X642500Y346681D02*
Y344500D01*
X644681D01*
X642500Y346681D01*
D02*
G37*
G36*
X641500Y348120D02*
X640917Y348043D01*
X639907Y347625D01*
X639041Y346959D01*
X638375Y346093D01*
X637957Y345083D01*
X637880Y344500D01*
X641500D01*
Y348120D01*
D02*
G37*
G36*
X622453Y355000D02*
X618500D01*
X614547D01*
Y350563D01*
X615482D01*
X615688Y350063D01*
X615416Y349656D01*
X615286Y349000D01*
X615416Y348344D01*
X615788Y347788D01*
X616344Y347416D01*
X617000Y347286D01*
X617656Y347416D01*
X618188Y347772D01*
X618221Y347785D01*
X618313Y347875D01*
X618393Y347945D01*
X618468Y348003D01*
X618539Y348051D01*
X618604Y348088D01*
X618664Y348116D01*
X618717Y348136D01*
X618766Y348149D01*
X618810Y348156D01*
X618880Y348160D01*
X618932Y348184D01*
X626662D01*
X627802Y347044D01*
X627816Y346998D01*
X627909Y346884D01*
X627978Y346764D01*
X628050Y346591D01*
X628118Y346367D01*
X628178Y346093D01*
X628226Y345782D01*
X628308Y344526D01*
X628309Y344032D01*
X628309Y344032D01*
X628309Y344032D01*
Y344030D01*
X628320Y344005D01*
X628319Y344000D01*
X628444Y343047D01*
X628812Y342160D01*
X629397Y341397D01*
X630160Y340812D01*
X631047Y340444D01*
X632000Y340319D01*
X632953Y340444D01*
X633841Y340812D01*
X634603Y341397D01*
X635188Y342160D01*
X635556Y343047D01*
X635681Y344000D01*
X635556Y344953D01*
X635188Y345841D01*
X634603Y346603D01*
X633841Y347188D01*
X632953Y347556D01*
X632000Y347681D01*
X631995Y347680D01*
X631970Y347691D01*
X631968D01*
X631968Y347691D01*
X631968Y347691D01*
X631464Y347692D01*
X631014Y347706D01*
X630224Y347773D01*
X629908Y347822D01*
X629634Y347883D01*
X629409Y347950D01*
X629236Y348022D01*
X629116Y348091D01*
X629002Y348184D01*
X628956Y348198D01*
X627577Y349577D01*
X627312Y349754D01*
X627000Y349816D01*
X627000Y349816D01*
X618932D01*
X618880Y349840D01*
X618810Y349844D01*
X618766Y349851D01*
X618717Y349864D01*
X618664Y349884D01*
X618645Y349892D01*
X618584Y350063D01*
X618678Y350278D01*
X618957Y350563D01*
X622453D01*
Y355000D01*
D02*
G37*
G36*
X646120Y343500D02*
X642000D01*
X637880D01*
X637957Y342917D01*
X638375Y341907D01*
X639041Y341040D01*
X639907Y340375D01*
X640219Y340246D01*
X640298Y340055D01*
X640368Y339829D01*
X640418Y339599D01*
X640448Y339364D01*
X640459Y339101D01*
X640471Y339076D01*
Y338924D01*
X640459Y338899D01*
X640448Y338636D01*
X640418Y338401D01*
X640368Y338171D01*
X640298Y337945D01*
X640219Y337754D01*
X639907Y337625D01*
X639041Y336960D01*
X638375Y336093D01*
X637957Y335083D01*
X637880Y334500D01*
X642000D01*
X646120D01*
X646043Y335083D01*
X645625Y336093D01*
X644959Y336960D01*
X644093Y337625D01*
X643781Y337754D01*
X643703Y337945D01*
X643632Y338171D01*
X643582Y338401D01*
X643552Y338636D01*
X643541Y338899D01*
X643529Y338924D01*
Y339076D01*
X643541Y339101D01*
X643552Y339364D01*
X643582Y339599D01*
X643632Y339829D01*
X643703Y340055D01*
X643781Y340246D01*
X644093Y340375D01*
X644959Y341040D01*
X645625Y341907D01*
X646043Y342917D01*
X646120Y343500D01*
D02*
G37*
G36*
Y333500D02*
X642000D01*
X637880D01*
X637957Y332917D01*
X638375Y331907D01*
X639041Y331041D01*
X639907Y330375D01*
X640219Y330246D01*
X640298Y330055D01*
X640368Y329829D01*
X640418Y329599D01*
X640448Y329364D01*
X640459Y329101D01*
X640471Y329077D01*
Y328924D01*
X640459Y328899D01*
X640448Y328636D01*
X640418Y328401D01*
X640368Y328171D01*
X640298Y327945D01*
X640219Y327754D01*
X639907Y327625D01*
X639041Y326959D01*
X638375Y326093D01*
X637957Y325083D01*
X637880Y324500D01*
X642000D01*
X646120D01*
X646043Y325083D01*
X645625Y326093D01*
X644959Y326959D01*
X644093Y327625D01*
X643781Y327754D01*
X643703Y327945D01*
X643632Y328171D01*
X643582Y328401D01*
X643552Y328636D01*
X643541Y328899D01*
X643529Y328924D01*
Y329077D01*
X643541Y329101D01*
X643552Y329364D01*
X643582Y329599D01*
X643632Y329829D01*
X643703Y330055D01*
X643781Y330246D01*
X644093Y330375D01*
X644959Y331041D01*
X645625Y331907D01*
X646043Y332917D01*
X646120Y333500D01*
D02*
G37*
G36*
X641500Y323500D02*
X639319D01*
X641500Y321319D01*
Y323500D01*
D02*
G37*
G36*
X557000Y322500D02*
X555376D01*
X555445Y322149D01*
X555928Y321427D01*
X556649Y320945D01*
X557000Y320876D01*
Y322500D01*
D02*
G37*
G36*
X646120Y323500D02*
X642500D01*
Y319880D01*
X643083Y319957D01*
X644093Y320375D01*
X644959Y321041D01*
X645625Y321907D01*
X646043Y322917D01*
X646120Y323500D01*
D02*
G37*
G36*
X642000Y317681D02*
X641047Y317556D01*
X640160Y317188D01*
X639397Y316603D01*
X638812Y315841D01*
X638444Y314953D01*
X638319Y314000D01*
X638444Y313047D01*
X638812Y312159D01*
X639397Y311397D01*
X640160Y310812D01*
X641047Y310444D01*
X642000Y310319D01*
X642953Y310444D01*
X643841Y310812D01*
X644603Y311397D01*
X645188Y312159D01*
X645556Y313047D01*
X645681Y314000D01*
X645556Y314953D01*
X645188Y315841D01*
X644603Y316603D01*
X643841Y317188D01*
X642953Y317556D01*
X642000Y317681D01*
D02*
G37*
G36*
X616000Y303181D02*
Y301000D01*
X618181D01*
X616000Y303181D01*
D02*
G37*
G36*
X615000Y304620D02*
X614417Y304543D01*
X613407Y304125D01*
X612540Y303460D01*
X611875Y302593D01*
X611457Y301583D01*
X611380Y301000D01*
X615000D01*
Y304620D01*
D02*
G37*
G36*
X519150Y304150D02*
X511850D01*
Y296850D01*
X519150D01*
Y304150D01*
D02*
G37*
G36*
X525500Y304181D02*
X524547Y304056D01*
X523660Y303688D01*
X522897Y303103D01*
X522312Y302341D01*
X521944Y301453D01*
X521819Y300500D01*
X521944Y299547D01*
X522312Y298659D01*
X522897Y297897D01*
X523660Y297312D01*
X524547Y296944D01*
X525500Y296819D01*
X526453Y296944D01*
X527341Y297312D01*
X528103Y297897D01*
X528688Y298659D01*
X529056Y299547D01*
X529181Y300500D01*
X529056Y301453D01*
X528688Y302341D01*
X528103Y303103D01*
X527341Y303688D01*
X526453Y304056D01*
X525500Y304181D01*
D02*
G37*
G36*
X619620Y300000D02*
X616000D01*
Y296380D01*
X616583Y296457D01*
X617593Y296875D01*
X618460Y297540D01*
X619125Y298407D01*
X619543Y299417D01*
X619620Y300000D01*
D02*
G37*
G36*
X615000D02*
X611380D01*
X611457Y299417D01*
X611875Y298407D01*
X612540Y297540D01*
X613407Y296875D01*
X614417Y296457D01*
X615000Y296380D01*
Y300000D01*
D02*
G37*
G36*
X646819Y308618D02*
X645563Y308494D01*
X644356Y308128D01*
X643243Y307533D01*
X642268Y306732D01*
X641467Y305757D01*
X640872Y304644D01*
X640506Y303437D01*
X640382Y302181D01*
X640506Y300925D01*
X640872Y299718D01*
X641467Y298605D01*
X642268Y297630D01*
X643243Y296829D01*
X644356Y296234D01*
X645563Y295868D01*
X646819Y295745D01*
X648075Y295868D01*
X649282Y296234D01*
X650395Y296829D01*
X651370Y297630D01*
X652171Y298605D01*
X652765Y299718D01*
X653132Y300925D01*
X653255Y302181D01*
X653132Y303437D01*
X652765Y304644D01*
X652171Y305757D01*
X651370Y306732D01*
X650395Y307533D01*
X649282Y308128D01*
X648075Y308494D01*
X646819Y308618D01*
D02*
G37*
G36*
X482181D02*
X480925Y308494D01*
X479718Y308128D01*
X478605Y307533D01*
X477630Y306732D01*
X476829Y305757D01*
X476235Y304644D01*
X475868Y303437D01*
X475745Y302181D01*
X475868Y300925D01*
X476235Y299718D01*
X476829Y298605D01*
X477630Y297630D01*
X478605Y296829D01*
X479718Y296234D01*
X480925Y295868D01*
X482181Y295745D01*
X483437Y295868D01*
X484644Y296234D01*
X485757Y296829D01*
X486732Y297630D01*
X487533Y298605D01*
X488128Y299718D01*
X488494Y300925D01*
X488618Y302181D01*
X488494Y303437D01*
X488128Y304644D01*
X487533Y305757D01*
X486732Y306732D01*
X485757Y307533D01*
X484644Y308128D01*
X483437Y308494D01*
X482181Y308618D01*
D02*
G37*
%LPD*%
G36*
X614211Y386362D02*
X614164Y386396D01*
X614109Y386413D01*
X614045D01*
X613973Y386396D01*
X613893Y386362D01*
X613804Y386312D01*
X613706Y386244D01*
X613600Y386159D01*
X613362Y385938D01*
X612938Y386362D01*
X613057Y386485D01*
X613244Y386706D01*
X613311Y386804D01*
X613362Y386893D01*
X613396Y386973D01*
X613413Y387046D01*
Y387109D01*
X613396Y387164D01*
X613362Y387211D01*
X614211Y386362D01*
D02*
G37*
G36*
X606468Y386351D02*
X605955Y386349D01*
X604659Y386265D01*
X604308Y386210D01*
X603997Y386142D01*
X603727Y386060D01*
X603497Y385965D01*
X603308Y385856D01*
X603159Y385735D01*
X602735Y386159D01*
X602856Y386308D01*
X602965Y386497D01*
X603060Y386727D01*
X603142Y386997D01*
X603210Y387308D01*
X603265Y387659D01*
X603335Y388483D01*
X603349Y388955D01*
X603351Y389469D01*
X606468Y386351D01*
D02*
G37*
G36*
X596468D02*
X595955Y386349D01*
X594659Y386265D01*
X594308Y386210D01*
X593997Y386142D01*
X593727Y386060D01*
X593497Y385965D01*
X593308Y385856D01*
X593159Y385735D01*
X592735Y386159D01*
X592857Y386308D01*
X592965Y386497D01*
X593060Y386727D01*
X593142Y386997D01*
X593210Y387308D01*
X593265Y387659D01*
X593334Y388483D01*
X593349Y388955D01*
X593351Y389469D01*
X596468Y386351D01*
D02*
G37*
G36*
X586469D02*
X585955Y386349D01*
X584659Y386265D01*
X584308Y386210D01*
X583997Y386142D01*
X583727Y386060D01*
X583497Y385965D01*
X583308Y385856D01*
X583159Y385735D01*
X582735Y386159D01*
X582857Y386308D01*
X582965Y386497D01*
X583060Y386727D01*
X583142Y386997D01*
X583210Y387308D01*
X583265Y387659D01*
X583334Y388483D01*
X583349Y388955D01*
X583351Y389469D01*
X586469Y386351D01*
D02*
G37*
G36*
X576469D02*
X575955Y386349D01*
X574659Y386265D01*
X574308Y386210D01*
X573997Y386142D01*
X573727Y386060D01*
X573497Y385965D01*
X573308Y385856D01*
X573159Y385735D01*
X572735Y386159D01*
X572857Y386308D01*
X572965Y386497D01*
X573060Y386727D01*
X573142Y386997D01*
X573210Y387308D01*
X573265Y387659D01*
X573335Y388483D01*
X573349Y388955D01*
X573351Y389469D01*
X576469Y386351D01*
D02*
G37*
G36*
X566468D02*
X565955Y386349D01*
X564659Y386265D01*
X564308Y386210D01*
X563997Y386142D01*
X563727Y386060D01*
X563497Y385965D01*
X563308Y385856D01*
X563159Y385735D01*
X562735Y386159D01*
X562856Y386308D01*
X562965Y386497D01*
X563060Y386727D01*
X563142Y386997D01*
X563210Y387308D01*
X563265Y387659D01*
X563335Y388483D01*
X563349Y388955D01*
X563351Y389469D01*
X566468Y386351D01*
D02*
G37*
G36*
X556468D02*
X555955Y386349D01*
X554659Y386265D01*
X554308Y386210D01*
X553997Y386142D01*
X553727Y386060D01*
X553497Y385965D01*
X553308Y385856D01*
X553159Y385735D01*
X552735Y386159D01*
X552856Y386308D01*
X552965Y386497D01*
X553060Y386727D01*
X553142Y386997D01*
X553210Y387308D01*
X553265Y387659D01*
X553335Y388483D01*
X553349Y388955D01*
X553351Y389469D01*
X556468Y386351D01*
D02*
G37*
G36*
X546468D02*
X545955Y386349D01*
X544659Y386265D01*
X544308Y386210D01*
X543997Y386142D01*
X543727Y386060D01*
X543497Y385965D01*
X543308Y385856D01*
X543159Y385735D01*
X542735Y386159D01*
X542857Y386308D01*
X542965Y386497D01*
X543060Y386727D01*
X543142Y386997D01*
X543210Y387308D01*
X543265Y387659D01*
X543334Y388483D01*
X543349Y388955D01*
X543351Y389469D01*
X546468Y386351D01*
D02*
G37*
G36*
X536469D02*
X535955Y386349D01*
X534659Y386265D01*
X534308Y386210D01*
X533997Y386142D01*
X533727Y386060D01*
X533497Y385965D01*
X533308Y385856D01*
X533159Y385735D01*
X532735Y386159D01*
X532857Y386308D01*
X532965Y386497D01*
X533060Y386727D01*
X533142Y386997D01*
X533210Y387308D01*
X533265Y387659D01*
X533334Y388483D01*
X533349Y388955D01*
X533351Y389469D01*
X536469Y386351D01*
D02*
G37*
G36*
X589148Y376301D02*
X584662Y371816D01*
X582737D01*
X582425Y371754D01*
X582161Y371577D01*
X582161Y371577D01*
X576252Y365668D01*
X575752Y365875D01*
Y366922D01*
X583850Y375021D01*
X583895Y375034D01*
X583989Y375109D01*
X584101Y375174D01*
X584278Y375252D01*
X584495Y375329D01*
X586494Y375766D01*
X587028Y375847D01*
X587028Y375848D01*
X587029Y375847D01*
X587116Y375900D01*
X587453Y375944D01*
X588341Y376312D01*
X588817Y376678D01*
X589148Y376301D01*
D02*
G37*
G36*
X597960Y375613D02*
X590662Y368316D01*
X587176D01*
X586969Y368816D01*
X593456Y375302D01*
X593502Y375316D01*
X593616Y375409D01*
X593736Y375478D01*
X593909Y375550D01*
X594133Y375618D01*
X594407Y375678D01*
X594718Y375726D01*
X595974Y375808D01*
X596468Y375809D01*
X596468Y375809D01*
X596468Y375809D01*
X596470D01*
X596495Y375820D01*
X596500Y375819D01*
X597453Y375944D01*
X597676Y376037D01*
X597960Y375613D01*
D02*
G37*
G36*
X579895Y377563D02*
X580134Y377452D01*
Y376988D01*
X572923Y369777D01*
X572746Y369512D01*
X572684Y369200D01*
X572684Y369200D01*
Y367630D01*
X572303Y367426D01*
X572184Y367415D01*
X571600Y367531D01*
X571016Y367415D01*
X570897Y367426D01*
X570516Y367630D01*
Y372362D01*
X573455Y375302D01*
X573502Y375316D01*
X573616Y375409D01*
X573736Y375478D01*
X573909Y375550D01*
X574133Y375618D01*
X574407Y375678D01*
X574718Y375726D01*
X575974Y375808D01*
X576469Y375809D01*
X576469Y375809D01*
X576469Y375809D01*
X576470D01*
X576495Y375820D01*
X576500Y375819D01*
X577453Y375944D01*
X578340Y376312D01*
X579103Y376897D01*
X579634Y377589D01*
X579895Y377563D01*
D02*
G37*
G36*
X616468Y376351D02*
X615955Y376349D01*
X614659Y376265D01*
X614308Y376210D01*
X613997Y376142D01*
X613727Y376060D01*
X613497Y375965D01*
X613308Y375856D01*
X613159Y375735D01*
X612735Y376159D01*
X612856Y376308D01*
X612965Y376497D01*
X613060Y376727D01*
X613142Y376997D01*
X613210Y377308D01*
X613265Y377659D01*
X613335Y378483D01*
X613349Y378955D01*
X613351Y379468D01*
X616468Y376351D01*
D02*
G37*
G36*
X596468D02*
X595955Y376349D01*
X594659Y376265D01*
X594308Y376210D01*
X593997Y376142D01*
X593727Y376060D01*
X593497Y375965D01*
X593308Y375856D01*
X593159Y375735D01*
X592735Y376159D01*
X592857Y376308D01*
X592965Y376497D01*
X593060Y376727D01*
X593142Y376997D01*
X593210Y377308D01*
X593265Y377659D01*
X593334Y378483D01*
X593349Y378955D01*
X593351Y379468D01*
X596468Y376351D01*
D02*
G37*
G36*
X576469D02*
X575955Y376349D01*
X574659Y376265D01*
X574308Y376210D01*
X573997Y376142D01*
X573727Y376060D01*
X573497Y375965D01*
X573308Y375856D01*
X573159Y375735D01*
X572735Y376159D01*
X572857Y376308D01*
X572965Y376497D01*
X573060Y376727D01*
X573142Y376997D01*
X573210Y377308D01*
X573265Y377659D01*
X573335Y378483D01*
X573349Y378955D01*
X573351Y379468D01*
X576469Y376351D01*
D02*
G37*
G36*
X586947Y376382D02*
X586395Y376299D01*
X584345Y375851D01*
X584077Y375755D01*
X583856Y375657D01*
X583682Y375557D01*
X583556Y375455D01*
X583066Y375814D01*
X583200Y375977D01*
X583312Y376174D01*
X583401Y376406D01*
X583467Y376672D01*
X583511Y376972D01*
X583532Y377307D01*
X583531Y377676D01*
X583507Y378080D01*
X583392Y378991D01*
X586947Y376382D01*
D02*
G37*
G36*
X558343Y376887D02*
X557486Y375910D01*
X557276Y375623D01*
X557105Y375355D01*
X556971Y375107D01*
X556876Y374877D01*
X556819Y374666D01*
X556800Y374475D01*
X556200D01*
X556181Y374666D01*
X556124Y374877D01*
X556029Y375107D01*
X555895Y375355D01*
X555724Y375623D01*
X555514Y375910D01*
X554981Y376542D01*
X554657Y376887D01*
X554295Y377251D01*
X558705D01*
X558343Y376887D01*
D02*
G37*
G36*
X548343D02*
X547486Y375910D01*
X547276Y375623D01*
X547105Y375355D01*
X546971Y375107D01*
X546876Y374877D01*
X546819Y374666D01*
X546800Y374475D01*
X546200D01*
X546181Y374666D01*
X546124Y374877D01*
X546029Y375107D01*
X545895Y375355D01*
X545724Y375623D01*
X545514Y375910D01*
X544981Y376542D01*
X544657Y376887D01*
X544295Y377251D01*
X548705D01*
X548343Y376887D01*
D02*
G37*
G36*
X538343D02*
X537486Y375910D01*
X537276Y375623D01*
X537105Y375355D01*
X536971Y375107D01*
X536876Y374877D01*
X536819Y374666D01*
X536800Y374475D01*
X536200D01*
X536181Y374666D01*
X536124Y374877D01*
X536029Y375107D01*
X535895Y375355D01*
X535724Y375623D01*
X535514Y375910D01*
X534981Y376542D01*
X534657Y376887D01*
X534295Y377251D01*
X538705D01*
X538343Y376887D01*
D02*
G37*
G36*
X568304Y376918D02*
X567920Y376639D01*
X567272Y376104D01*
X567009Y375848D01*
X566787Y375599D01*
X566605Y375358D01*
X566463Y375124D01*
X566362Y374898D01*
X566301Y374679D01*
X566281Y374468D01*
X565681Y374569D01*
X565664Y374727D01*
X565612Y374918D01*
X565526Y375143D01*
X565405Y375401D01*
X565060Y376016D01*
X564576Y376764D01*
X563955Y377645D01*
X568304Y376918D01*
D02*
G37*
G36*
X530400Y375800D02*
X527300Y372700D01*
X513100D01*
X513200Y372800D01*
X512900Y372700D01*
X513100D01*
X511800Y371400D01*
Y362800D01*
X497400Y348400D01*
X497200Y348200D01*
X478800D01*
Y355700D01*
X506300Y383200D01*
X530400D01*
Y375800D01*
D02*
G37*
G36*
X611070Y372395D02*
X611093Y372346D01*
X611122Y372303D01*
X611159Y372266D01*
X611202Y372234D01*
X611251Y372209D01*
X611308Y372189D01*
X611372Y372174D01*
X611442Y372166D01*
X611519Y372163D01*
Y371563D01*
X611406Y371561D01*
X611203Y371545D01*
X611113Y371530D01*
X611030Y371512D01*
X610955Y371490D01*
X610887Y371463D01*
X610827Y371433D01*
X610775Y371398D01*
X610730Y371360D01*
X611055Y372449D01*
X611070Y372395D01*
D02*
G37*
G36*
X616947Y371727D02*
X617049Y371637D01*
X617151Y371558D01*
X617252Y371490D01*
X617353Y371432D01*
X617454Y371384D01*
X617554Y371347D01*
X617654Y371321D01*
X617753Y371305D01*
X617851Y371300D01*
Y370700D01*
X617753Y370695D01*
X617654Y370679D01*
X617554Y370653D01*
X617454Y370616D01*
X617353Y370568D01*
X617252Y370510D01*
X617151Y370442D01*
X617049Y370363D01*
X616947Y370273D01*
X616844Y370173D01*
Y370633D01*
X616796Y370652D01*
X616718Y370673D01*
X616628Y370688D01*
X616526Y370697D01*
X616412Y370700D01*
Y371300D01*
X616526Y371303D01*
X616628Y371312D01*
X616718Y371327D01*
X616796Y371348D01*
X616844Y371367D01*
Y371827D01*
X616947Y371727D01*
D02*
G37*
G36*
X617266Y366545D02*
X617354Y366469D01*
X617437Y366407D01*
X617514Y366358D01*
X617585Y366324D01*
X617651Y366303D01*
X617712Y366296D01*
X617767Y366303D01*
X617816Y366323D01*
X617861Y366358D01*
X617024Y365521D01*
X617058Y365565D01*
X617079Y365615D01*
X617086Y365670D01*
X617079Y365731D01*
X617058Y365797D01*
X617023Y365868D01*
X616975Y365945D01*
X616913Y366028D01*
X616837Y366116D01*
X616748Y366210D01*
X617172Y366634D01*
X617266Y366545D01*
D02*
G37*
G36*
X562727Y365553D02*
X562637Y365451D01*
X562558Y365349D01*
X562490Y365248D01*
X562432Y365146D01*
X562384Y365046D01*
X562347Y364946D01*
X562321Y364846D01*
X562305Y364748D01*
X562300Y364649D01*
X561700D01*
X561695Y364748D01*
X561679Y364846D01*
X561653Y364946D01*
X561616Y365046D01*
X561568Y365146D01*
X561510Y365248D01*
X561442Y365349D01*
X561363Y365451D01*
X561273Y365553D01*
X561173Y365656D01*
X562827D01*
X562727Y365553D01*
D02*
G37*
G36*
X572441Y365175D02*
X572317Y364953D01*
X572266Y364847D01*
X572189Y364644D01*
X572161Y364547D01*
X572142Y364453D01*
X572130Y364362D01*
X572126Y364274D01*
X571526Y364142D01*
X571521Y364241D01*
X571506Y364335D01*
X571480Y364427D01*
X571443Y364515D01*
X571397Y364600D01*
X571340Y364681D01*
X571272Y364759D01*
X571195Y364834D01*
X571107Y364905D01*
X571008Y364973D01*
X572515Y365290D01*
X572441Y365175D01*
D02*
G37*
G36*
X564822Y362652D02*
X564722Y362550D01*
X564632Y362448D01*
X564553Y362347D01*
X564484Y362245D01*
X564426Y362145D01*
X564379Y362045D01*
X564342Y361945D01*
X564315Y361845D01*
X564299Y361746D01*
X564294Y361647D01*
X563694Y361650D01*
X563689Y361749D01*
X563673Y361848D01*
X563647Y361947D01*
X563610Y362048D01*
X563563Y362148D01*
X563505Y362249D01*
X563437Y362351D01*
X563358Y362454D01*
X563269Y362557D01*
X563169Y362661D01*
X564822Y362652D01*
D02*
G37*
G36*
X580037Y361396D02*
X580065Y360922D01*
X580074Y360878D01*
X580085Y360845D01*
X580096Y360822D01*
X579377D01*
X579388Y360845D01*
X579398Y360878D01*
X579407Y360922D01*
X579415Y360975D01*
X579427Y361113D01*
X579436Y361396D01*
X579436Y361511D01*
X580036D01*
X580037Y361396D01*
D02*
G37*
G36*
X578437Y361433D02*
X578467Y360999D01*
X578478Y360941D01*
X578491Y360892D01*
X578505Y360852D01*
X578521Y360822D01*
X577802D01*
X577808Y360838D01*
X577814Y360865D01*
X577819Y360902D01*
X577828Y361011D01*
X577836Y361474D01*
X578437Y361548D01*
X578437Y361433D01*
D02*
G37*
G36*
X576837Y361454D02*
X576864Y361090D01*
X576876Y361020D01*
X576890Y360958D01*
X576907Y360905D01*
X576925Y360859D01*
X576946Y360822D01*
X576227D01*
X576229Y360831D01*
X576230Y360851D01*
X576235Y361050D01*
X576236Y361436D01*
X576836Y361565D01*
X576837Y361454D01*
D02*
G37*
G36*
X575238Y361474D02*
X575258Y361193D01*
X575270Y361113D01*
X575302Y360976D01*
X575323Y360917D01*
X575346Y360866D01*
X575371Y360822D01*
X574652D01*
X574649Y360823D01*
X574647Y360835D01*
X574644Y360859D01*
X574640Y360940D01*
X574636Y361342D01*
X575236Y361582D01*
X575238Y361474D01*
D02*
G37*
G36*
X573738Y361396D02*
X573766Y360922D01*
X573775Y360878D01*
X573785Y360845D01*
X573797Y360822D01*
X573077D01*
X573089Y360845D01*
X573099Y360878D01*
X573108Y360922D01*
X573116Y360975D01*
X573128Y361113D01*
X573136Y361396D01*
X573137Y361511D01*
X573737D01*
X573738Y361396D01*
D02*
G37*
G36*
X572127Y361442D02*
X572150Y361077D01*
X572161Y361008D01*
X572173Y360948D01*
X572187Y360897D01*
X572204Y360855D01*
X572222Y360822D01*
X571503D01*
X571507Y360835D01*
X571511Y360859D01*
X571515Y360894D01*
X571523Y361068D01*
X571526Y361458D01*
X572126Y361556D01*
X572127Y361442D01*
D02*
G37*
G36*
X567438Y361396D02*
X567467Y360922D01*
X567476Y360878D01*
X567486Y360845D01*
X567497Y360822D01*
X566778D01*
X566789Y360845D01*
X566800Y360878D01*
X566809Y360922D01*
X566816Y360975D01*
X566828Y361113D01*
X566837Y361396D01*
X566838Y361511D01*
X567438D01*
X567438Y361396D01*
D02*
G37*
G36*
X565864D02*
X565892Y360922D01*
X565901Y360878D01*
X565911Y360845D01*
X565922Y360822D01*
X565203D01*
X565215Y360845D01*
X565225Y360878D01*
X565234Y360922D01*
X565242Y360975D01*
X565253Y361113D01*
X565262Y361396D01*
X565263Y361511D01*
X565863D01*
X565864Y361396D01*
D02*
G37*
G36*
X564294Y361502D02*
X564295Y361388D01*
X564328Y360875D01*
X564338Y360843D01*
X564348Y360822D01*
X563629D01*
X563641Y360847D01*
X563652Y360881D01*
X563662Y360926D01*
X563670Y360981D01*
X563684Y361121D01*
X563694Y361405D01*
X563694Y361520D01*
X564294Y361502D01*
D02*
G37*
G36*
X562714Y361396D02*
X562743Y360922D01*
X562751Y360878D01*
X562762Y360845D01*
X562773Y360822D01*
X562054D01*
X562065Y360845D01*
X562075Y360878D01*
X562084Y360922D01*
X562092Y360975D01*
X562104Y361113D01*
X562113Y361396D01*
X562113Y361511D01*
X562713D01*
X562714Y361396D01*
D02*
G37*
G36*
X561139D02*
X561168Y360922D01*
X561177Y360878D01*
X561187Y360845D01*
X561198Y360822D01*
X560479D01*
X560490Y360845D01*
X560500Y360878D01*
X560509Y360922D01*
X560517Y360975D01*
X560529Y361113D01*
X560538Y361396D01*
X560539Y361511D01*
X561139D01*
X561139Y361396D01*
D02*
G37*
G36*
X559564D02*
X559593Y360922D01*
X559602Y360878D01*
X559612Y360845D01*
X559623Y360822D01*
X558904D01*
X558916Y360845D01*
X558926Y360878D01*
X558935Y360922D01*
X558942Y360975D01*
X558954Y361113D01*
X558963Y361396D01*
X558964Y361511D01*
X559564D01*
X559564Y361396D01*
D02*
G37*
G36*
X544447Y360727D02*
X544549Y360637D01*
X544651Y360558D01*
X544753Y360490D01*
X544853Y360432D01*
X544954Y360384D01*
X545054Y360347D01*
X545154Y360321D01*
X545253Y360305D01*
X545351Y360300D01*
Y359700D01*
X545253Y359695D01*
X545154Y359679D01*
X545054Y359653D01*
X544954Y359616D01*
X544853Y359568D01*
X544753Y359510D01*
X544651Y359442D01*
X544549Y359363D01*
X544447Y359273D01*
X544344Y359173D01*
Y360827D01*
X544447Y360727D01*
D02*
G37*
G36*
X553897Y376897D02*
X553901Y376894D01*
X553912Y376869D01*
X554268Y376511D01*
X554577Y376182D01*
X555088Y375576D01*
X555277Y375318D01*
X555428Y375081D01*
X555539Y374874D01*
X555611Y374701D01*
X555647Y374568D01*
X555661Y374421D01*
X555684Y374379D01*
Y364300D01*
X555684Y364300D01*
X555746Y363988D01*
X555923Y363723D01*
X558417Y361230D01*
X558414Y361145D01*
X558404Y361037D01*
X558401Y361015D01*
X558401Y361012D01*
X558398Y361003D01*
X558398Y361000D01*
X558396Y360987D01*
X558403Y360947D01*
X558405Y360935D01*
X558400Y360911D01*
X558363Y360822D01*
X558376Y360791D01*
X558353Y360673D01*
Y358705D01*
X558387Y358531D01*
X558131Y358111D01*
X558037Y358032D01*
X557969D01*
Y357963D01*
X557889Y357869D01*
X557469Y357613D01*
X557295Y357647D01*
X556799D01*
X556783Y357655D01*
X556733Y357656D01*
X556711Y357659D01*
X556683Y357666D01*
X556648Y357678D01*
X556606Y357697D01*
X556557Y357725D01*
X556509Y357757D01*
X556369Y357871D01*
X556295Y357941D01*
X556237Y357964D01*
X552816Y361385D01*
Y377551D01*
X553312Y377660D01*
X553897Y376897D01*
D02*
G37*
G36*
X556011Y357464D02*
X556187Y357321D01*
X556274Y357264D01*
X556359Y357215D01*
X556444Y357176D01*
X556527Y357147D01*
X556609Y357126D01*
X556690Y357115D01*
X556770Y357113D01*
X555140Y357056D01*
X555213Y357063D01*
X555269Y357080D01*
X555307Y357106D01*
X555327Y357142D01*
X555330Y357187D01*
X555314Y357241D01*
X555281Y357304D01*
X555229Y357377D01*
X555160Y357458D01*
X555073Y357550D01*
X555922D01*
X556011Y357464D01*
D02*
G37*
G36*
X569016Y356508D02*
X569026Y356420D01*
X569043Y356344D01*
X569067Y356280D01*
X569097Y356227D01*
X569134Y356185D01*
X569178Y356155D01*
X569229Y356137D01*
X569287Y356130D01*
X569351Y356134D01*
X568568Y355161D01*
X568518Y355224D01*
X568413Y356343D01*
X569013Y356607D01*
X569016Y356508D01*
D02*
G37*
G36*
X574611Y355777D02*
X574689Y355710D01*
X574768Y355652D01*
X574849Y355602D01*
X574930Y355559D01*
X575014Y355524D01*
X575098Y355496D01*
X575184Y355477D01*
X575271Y355465D01*
X575359Y355461D01*
Y354861D01*
X575271Y354857D01*
X575184Y354846D01*
X575098Y354826D01*
X575014Y354799D01*
X574930Y354764D01*
X574849Y354721D01*
X574768Y354671D01*
X574689Y354612D01*
X574611Y354546D01*
X574534Y354472D01*
Y355850D01*
X574611Y355777D01*
D02*
G37*
G36*
X569351Y354188D02*
X569287Y354193D01*
X569229Y354186D01*
X569178Y354168D01*
X569134Y354138D01*
X569097Y354096D01*
X569067Y354043D01*
X569043Y353979D01*
X569026Y353903D01*
X569016Y353815D01*
X569013Y353716D01*
X568413Y353980D01*
X568518Y355099D01*
X568568Y355161D01*
X569351Y354188D01*
D02*
G37*
G36*
X555178Y353227D02*
X555155Y353238D01*
X555122Y353249D01*
X555078Y353257D01*
X555025Y353265D01*
X554887Y353277D01*
X554604Y353286D01*
X554489Y353287D01*
Y353887D01*
X554604Y353887D01*
X555078Y353916D01*
X555122Y353925D01*
X555155Y353935D01*
X555178Y353946D01*
Y353227D01*
D02*
G37*
G36*
Y351652D02*
X555155Y351664D01*
X555122Y351674D01*
X555078Y351683D01*
X555025Y351690D01*
X554887Y351702D01*
X554604Y351711D01*
X554489Y351712D01*
Y352312D01*
X554604Y352312D01*
X555078Y352341D01*
X555122Y352350D01*
X555155Y352360D01*
X555178Y352371D01*
Y351652D01*
D02*
G37*
G36*
X604660Y376312D02*
X605547Y375944D01*
X606500Y375819D01*
X607028Y375888D01*
X607261Y375415D01*
X601860Y370014D01*
X601683Y369749D01*
X601621Y369437D01*
X601621Y369437D01*
Y362575D01*
X590149Y351103D01*
X589724Y351143D01*
X589432Y351577D01*
X589513Y351988D01*
X589398Y352567D01*
X589294Y352723D01*
X589189Y353162D01*
X589422Y353364D01*
X589670Y353530D01*
X589998Y354021D01*
X590113Y354600D01*
X589998Y355179D01*
X589670Y355670D01*
X589179Y355998D01*
X588600Y356113D01*
X588505Y356094D01*
X588104Y356524D01*
X588014Y356978D01*
X587686Y357469D01*
X587195Y357797D01*
X586747Y357886D01*
X586569Y358256D01*
X586550Y358396D01*
X604550Y376396D01*
X604660Y376312D01*
D02*
G37*
G36*
X569016Y352177D02*
X569026Y352090D01*
X569043Y352013D01*
X569067Y351949D01*
X569097Y351896D01*
X569134Y351854D01*
X569178Y351824D01*
X569229Y351806D01*
X569287Y351799D01*
X569351Y351804D01*
X568568Y350831D01*
X568518Y350893D01*
X568413Y352012D01*
X569013Y352276D01*
X569016Y352177D01*
D02*
G37*
G36*
X555178Y350077D02*
X555155Y350089D01*
X555122Y350099D01*
X555078Y350108D01*
X555025Y350116D01*
X554887Y350128D01*
X554604Y350136D01*
X554489Y350137D01*
Y350737D01*
X554604Y350738D01*
X555078Y350766D01*
X555122Y350775D01*
X555155Y350785D01*
X555178Y350797D01*
Y350077D01*
D02*
G37*
G36*
X583981Y350673D02*
X584021Y350637D01*
X584070Y350606D01*
X584127Y350579D01*
X584193Y350556D01*
X584268Y350537D01*
X584350Y350523D01*
X584441Y350512D01*
X584649Y350504D01*
X584577Y349904D01*
X584275Y349905D01*
X583470Y349956D01*
X583451Y349974D01*
X583478Y349996D01*
X583552Y350021D01*
X583673Y350048D01*
X583948Y350712D01*
X583981Y350673D01*
D02*
G37*
G36*
X569351Y349858D02*
X569287Y349862D01*
X569229Y349855D01*
X569178Y349837D01*
X569134Y349807D01*
X569097Y349765D01*
X569067Y349712D01*
X569043Y349648D01*
X569026Y349572D01*
X569016Y349484D01*
X569013Y349385D01*
X568413Y349650D01*
X568518Y350768D01*
X568568Y350831D01*
X569351Y349858D01*
D02*
G37*
G36*
X583845Y349210D02*
X583878Y349200D01*
X583922Y349191D01*
X583975Y349184D01*
X584113Y349172D01*
X584396Y349163D01*
X584511Y349162D01*
Y348562D01*
X584396Y348562D01*
X583922Y348533D01*
X583878Y348524D01*
X583845Y348514D01*
X583822Y348503D01*
Y349222D01*
X583845Y349210D01*
D02*
G37*
G36*
X555178Y348503D02*
X555155Y348514D01*
X555122Y348524D01*
X555078Y348533D01*
X555025Y348541D01*
X554887Y348553D01*
X554604Y348562D01*
X554489Y348562D01*
Y349162D01*
X554604Y349163D01*
X555078Y349191D01*
X555122Y349200D01*
X555155Y349210D01*
X555178Y349222D01*
Y348503D01*
D02*
G37*
G36*
X583855Y347629D02*
X583897Y347613D01*
X583948Y347598D01*
X584008Y347586D01*
X584077Y347575D01*
X584242Y347560D01*
X584442Y347552D01*
X584556Y347552D01*
X584458Y346952D01*
X583822Y346928D01*
Y347647D01*
X583855Y347629D01*
D02*
G37*
G36*
X555178Y346928D02*
X555155Y346939D01*
X555122Y346949D01*
X555078Y346958D01*
X555025Y346966D01*
X554887Y346978D01*
X554604Y346987D01*
X554489Y346987D01*
Y347587D01*
X554604Y347588D01*
X555078Y347617D01*
X555122Y347625D01*
X555155Y347636D01*
X555178Y347647D01*
Y346928D01*
D02*
G37*
G36*
X591500Y346372D02*
X591425Y346482D01*
X591348Y346581D01*
X591267Y346668D01*
X591183Y346743D01*
X591096Y346807D01*
X591005Y346859D01*
X590911Y346899D01*
X590815Y346928D01*
X590715Y346946D01*
X590611Y346952D01*
X590747Y347552D01*
X590837Y347556D01*
X590932Y347569D01*
X591032Y347591D01*
X591135Y347621D01*
X591244Y347660D01*
X591356Y347709D01*
X591595Y347831D01*
X591721Y347905D01*
X591852Y347987D01*
X591500Y346372D01*
D02*
G37*
G36*
X530684Y374666D02*
Y364000D01*
X530684Y364000D01*
X530746Y363688D01*
X530923Y363423D01*
X547285Y347061D01*
X547121Y346519D01*
X546944Y346484D01*
X546427Y346138D01*
X546389Y346124D01*
X546341Y346079D01*
X546309Y346055D01*
X546273Y346033D01*
X546232Y346012D01*
X546183Y345993D01*
X546128Y345976D01*
X546064Y345962D01*
X545992Y345951D01*
X545911Y345944D01*
X545807Y345941D01*
X545759Y345920D01*
X543541D01*
Y349000D01*
X543383Y349383D01*
X543000Y349541D01*
X524500D01*
X524117Y349383D01*
X523959Y349000D01*
Y338000D01*
X524117Y337617D01*
X524500Y337459D01*
X542500D01*
X542500Y337459D01*
X542883Y337617D01*
X542883Y337617D01*
X543383Y338117D01*
X543541Y338500D01*
X543541Y338500D01*
Y343880D01*
X545759D01*
X545807Y343859D01*
X545911Y343856D01*
X545992Y343849D01*
X546064Y343838D01*
X546128Y343824D01*
X546184Y343807D01*
X546232Y343788D01*
X546273Y343767D01*
X546309Y343745D01*
X546341Y343721D01*
X546389Y343676D01*
X546427Y343662D01*
X546944Y343316D01*
X547600Y343186D01*
X548256Y343316D01*
X548812Y343688D01*
X549184Y344244D01*
X549314Y344900D01*
X549184Y345556D01*
X548906Y345972D01*
X549105Y346472D01*
X552011D01*
X552218Y345972D01*
X542003Y335757D01*
X541541Y335948D01*
Y336000D01*
X541383Y336383D01*
X541000Y336541D01*
X528000D01*
X527617Y336383D01*
X527617Y336383D01*
X522276Y331041D01*
X502641D01*
Y336400D01*
X502516Y336703D01*
X502483Y336783D01*
X502100Y336941D01*
X502021Y336908D01*
X501859Y336841D01*
X500267D01*
Y337299D01*
X499767D01*
Y339039D01*
X499767Y339358D01*
X499767Y339858D01*
Y341598D01*
X499767Y341917D01*
X499767Y342417D01*
Y344317D01*
X501548D01*
X502134Y344433D01*
X502630Y344765D01*
X503238Y345373D01*
X503456Y345416D01*
X504012Y345788D01*
X504384Y346344D01*
X504514Y347000D01*
X504384Y347656D01*
X504012Y348212D01*
X503456Y348584D01*
X502800Y348714D01*
X502144Y348584D01*
X501588Y348212D01*
X501260Y347720D01*
X500915Y347376D01*
X497794D01*
X497687Y347600D01*
X497641Y347876D01*
X497783Y348017D01*
X497783Y348017D01*
X512183Y362417D01*
X512341Y362800D01*
X512341Y362800D01*
Y371176D01*
X513324Y372159D01*
X527300D01*
X527683Y372317D01*
X527683Y372317D01*
X530222Y374857D01*
X530684Y374666D01*
D02*
G37*
G36*
X583845Y346061D02*
X583878Y346051D01*
X583922Y346042D01*
X583975Y346034D01*
X584113Y346022D01*
X584396Y346013D01*
X584511Y346013D01*
Y345413D01*
X584396Y345412D01*
X583922Y345383D01*
X583878Y345374D01*
X583845Y345364D01*
X583822Y345353D01*
Y346072D01*
X583845Y346061D01*
D02*
G37*
G36*
X555178Y345353D02*
X555155Y345364D01*
X555122Y345374D01*
X555078Y345383D01*
X555025Y345391D01*
X554887Y345403D01*
X554604Y345412D01*
X554489Y345413D01*
Y346013D01*
X554604Y346013D01*
X555078Y346042D01*
X555122Y346051D01*
X555155Y346061D01*
X555178Y346072D01*
Y345353D01*
D02*
G37*
G36*
X605878Y369751D02*
X606209Y369584D01*
X606316Y369044D01*
X606688Y368488D01*
X607084Y368223D01*
Y335931D01*
X607084Y335931D01*
X607146Y335619D01*
X607323Y335355D01*
X615126Y327552D01*
Y319832D01*
X614632Y319816D01*
X609838D01*
X592815Y336839D01*
X592979Y337381D01*
X593156Y337416D01*
X593712Y337788D01*
X594084Y338344D01*
X594214Y339000D01*
X594084Y339656D01*
X593712Y340212D01*
X593156Y340584D01*
X592528Y340708D01*
X592496Y340722D01*
X592367Y340724D01*
X592261Y340731D01*
X592208Y340738D01*
X592131Y340791D01*
X592080Y340860D01*
X592352Y341291D01*
X592409Y341304D01*
X592500Y341286D01*
X593156Y341416D01*
X593712Y341788D01*
X594084Y342344D01*
X594214Y343000D01*
X594084Y343656D01*
X593712Y344212D01*
X593156Y344584D01*
X592528Y344708D01*
X592496Y344722D01*
X592367Y344724D01*
X592261Y344731D01*
X592208Y344738D01*
X592131Y344791D01*
X592080Y344860D01*
X592352Y345291D01*
X592409Y345304D01*
X592500Y345286D01*
X593156Y345416D01*
X593712Y345788D01*
X594084Y346344D01*
X594214Y347000D01*
X594084Y347656D01*
X593712Y348212D01*
X593156Y348584D01*
X592979Y348619D01*
X592815Y349161D01*
X604577Y360923D01*
X604577Y360923D01*
X604754Y361188D01*
X604816Y361500D01*
Y368898D01*
X605699Y369781D01*
X605878Y369751D01*
D02*
G37*
G36*
X569490Y345516D02*
X569383Y345514D01*
X569281Y345505D01*
X569184Y345490D01*
X569091Y345469D01*
X569003Y345441D01*
X568920Y345407D01*
X568841Y345367D01*
X568766Y345320D01*
X568697Y345267D01*
X568632Y345207D01*
X568207Y345632D01*
X568267Y345697D01*
X568320Y345766D01*
X568367Y345841D01*
X568407Y345920D01*
X568441Y346003D01*
X568469Y346091D01*
X568490Y346184D01*
X568505Y346282D01*
X568514Y346384D01*
X568516Y346490D01*
X569490Y345516D01*
D02*
G37*
G36*
X546757Y344073D02*
X546690Y344135D01*
X546617Y344191D01*
X546538Y344240D01*
X546453Y344282D01*
X546363Y344318D01*
X546266Y344348D01*
X546164Y344371D01*
X546056Y344387D01*
X545941Y344397D01*
X545821Y344400D01*
Y345400D01*
X545941Y345403D01*
X546056Y345413D01*
X546164Y345429D01*
X546266Y345452D01*
X546363Y345482D01*
X546453Y345518D01*
X546538Y345560D01*
X546617Y345609D01*
X546690Y345665D01*
X546757Y345727D01*
Y344073D01*
D02*
G37*
G36*
X583845Y344486D02*
X583878Y344476D01*
X583922Y344467D01*
X583975Y344459D01*
X584113Y344447D01*
X584396Y344438D01*
X584511Y344438D01*
Y343838D01*
X584396Y343837D01*
X583922Y343809D01*
X583878Y343800D01*
X583845Y343790D01*
X583822Y343778D01*
Y344497D01*
X583845Y344486D01*
D02*
G37*
G36*
X591477Y344455D02*
X591558Y344396D01*
X591647Y344344D01*
X591744Y344300D01*
X591848Y344262D01*
X591961Y344232D01*
X592081Y344209D01*
X592209Y344192D01*
X592345Y344183D01*
X592488Y344181D01*
X591319Y343012D01*
X591317Y343155D01*
X591308Y343291D01*
X591292Y343419D01*
X591268Y343539D01*
X591238Y343652D01*
X591200Y343756D01*
X591155Y343853D01*
X591104Y343942D01*
X591045Y344023D01*
X590979Y344097D01*
X591403Y344521D01*
X591477Y344455D01*
D02*
G37*
G36*
X583845Y342911D02*
X583878Y342901D01*
X583922Y342892D01*
X583975Y342884D01*
X584113Y342873D01*
X584396Y342864D01*
X584511Y342863D01*
Y342263D01*
X584396Y342262D01*
X583922Y342234D01*
X583878Y342225D01*
X583845Y342215D01*
X583822Y342203D01*
Y342923D01*
X583845Y342911D01*
D02*
G37*
G36*
X555178Y342203D02*
X555155Y342215D01*
X555122Y342225D01*
X555078Y342234D01*
X555025Y342242D01*
X554887Y342253D01*
X554604Y342262D01*
X554489Y342263D01*
Y342863D01*
X554604Y342864D01*
X555078Y342892D01*
X555122Y342901D01*
X555155Y342911D01*
X555178Y342923D01*
Y342203D01*
D02*
G37*
G36*
X583845Y341336D02*
X583878Y341326D01*
X583922Y341317D01*
X583975Y341310D01*
X584113Y341298D01*
X584396Y341289D01*
X584511Y341288D01*
Y340688D01*
X584396Y340688D01*
X583922Y340659D01*
X583878Y340650D01*
X583845Y340640D01*
X583822Y340629D01*
Y341348D01*
X583845Y341336D01*
D02*
G37*
G36*
X555178Y340629D02*
X555155Y340640D01*
X555122Y340650D01*
X555078Y340659D01*
X555025Y340667D01*
X554887Y340679D01*
X554604Y340688D01*
X554489Y340688D01*
Y341288D01*
X554604Y341289D01*
X555078Y341317D01*
X555122Y341326D01*
X555155Y341336D01*
X555178Y341348D01*
Y340629D01*
D02*
G37*
G36*
X583855Y339755D02*
X583897Y339739D01*
X583948Y339724D01*
X584008Y339712D01*
X584077Y339701D01*
X584242Y339686D01*
X584442Y339679D01*
X584556Y339678D01*
X584458Y339077D01*
X583822Y339054D01*
Y339773D01*
X583855Y339755D01*
D02*
G37*
G36*
X555178Y339054D02*
X555155Y339065D01*
X555122Y339075D01*
X555078Y339084D01*
X555025Y339092D01*
X554887Y339104D01*
X554604Y339113D01*
X554489Y339113D01*
Y339713D01*
X554604Y339714D01*
X555078Y339743D01*
X555122Y339752D01*
X555155Y339762D01*
X555178Y339773D01*
Y339054D01*
D02*
G37*
G36*
X591477Y340455D02*
X591558Y340396D01*
X591647Y340345D01*
X591744Y340300D01*
X591848Y340262D01*
X591961Y340232D01*
X592081Y340209D01*
X592209Y340192D01*
X592345Y340183D01*
X592488Y340181D01*
X591319Y339012D01*
X591317Y339155D01*
X591308Y339291D01*
X591292Y339419D01*
X591268Y339539D01*
X591238Y339652D01*
X591200Y339756D01*
X591155Y339853D01*
X591104Y339942D01*
X591045Y340023D01*
X590979Y340097D01*
X591403Y340521D01*
X591477Y340455D01*
D02*
G37*
G36*
X543000Y338500D02*
X542500Y338000D01*
X524500D01*
Y349000D01*
X543000D01*
Y338500D01*
D02*
G37*
G36*
X565863Y339127D02*
X565865Y339049D01*
X565872Y338968D01*
X565898Y338797D01*
X565917Y338707D01*
X565970Y338517D01*
X566039Y338315D01*
X566081Y338210D01*
X565718Y337839D01*
X564819Y338758D01*
X564903Y338795D01*
X564979Y338839D01*
X565045Y338888D01*
X565103Y338944D01*
X565152Y339006D01*
X565192Y339074D01*
X565223Y339148D01*
X565245Y339229D01*
X565259Y339316D01*
X565263Y339409D01*
X565863Y339127D01*
D02*
G37*
G36*
X555178Y337479D02*
X555165Y337484D01*
X555141Y337488D01*
X555106Y337491D01*
X554932Y337499D01*
X554542Y337503D01*
X554444Y338103D01*
X554558Y338104D01*
X554923Y338127D01*
X554992Y338137D01*
X555052Y338149D01*
X555103Y338164D01*
X555145Y338180D01*
X555178Y338198D01*
Y337479D01*
D02*
G37*
G36*
X566081Y337467D02*
X566039Y337362D01*
X565970Y337160D01*
X565917Y336971D01*
X565898Y336880D01*
X565872Y336709D01*
X565865Y336628D01*
X565863Y336550D01*
X565263Y336268D01*
X565259Y336361D01*
X565245Y336448D01*
X565223Y336529D01*
X565192Y336603D01*
X565152Y336672D01*
X565103Y336734D01*
X565045Y336789D01*
X564979Y336839D01*
X564903Y336882D01*
X564819Y336919D01*
X565718Y337839D01*
X566081Y337467D01*
D02*
G37*
G36*
X559807Y335975D02*
X559756Y335957D01*
X559711Y335927D01*
X559672Y335884D01*
X559639Y335830D01*
X559612Y335765D01*
X559591Y335686D01*
X559576Y335596D01*
X559567Y335494D01*
X559564Y335381D01*
X558964D01*
X558981Y335981D01*
X559864D01*
X559807Y335975D01*
D02*
G37*
G36*
X583896Y335948D02*
X583849Y335901D01*
X583808Y335847D01*
X583772Y335786D01*
X583742Y335718D01*
X583717Y335643D01*
X583698Y335561D01*
X583684Y335473D01*
X583676Y335377D01*
X583673Y335275D01*
X583073D01*
X583070Y335396D01*
X583061Y335503D01*
X583046Y335598D01*
X583025Y335679D01*
X582998Y335747D01*
X582965Y335801D01*
X582926Y335842D01*
X582881Y335870D01*
X582830Y335885D01*
X582773Y335887D01*
X583948Y335989D01*
X583896Y335948D01*
D02*
G37*
G36*
X559564Y335018D02*
X559593Y334544D01*
X559602Y334500D01*
X559612Y334467D01*
X559623Y334444D01*
X558904D01*
X558916Y334467D01*
X558926Y334500D01*
X558935Y334544D01*
X558942Y334597D01*
X558954Y334735D01*
X558963Y335018D01*
X558964Y335133D01*
X559564D01*
X559564Y335018D01*
D02*
G37*
G36*
X556854Y335880D02*
X556803Y335862D01*
X556758Y335831D01*
X556719Y335789D01*
X556686Y335734D01*
X556659Y335666D01*
X556638Y335587D01*
X556623Y335495D01*
X556614Y335391D01*
X556613Y335350D01*
X556617Y335282D01*
X556634Y335182D01*
X556662Y335085D01*
X556702Y334989D01*
X556753Y334896D01*
X556816Y334805D01*
X556890Y334717D01*
X556976Y334630D01*
X557073Y334546D01*
X557181Y334465D01*
X555549Y334200D01*
X555637Y334324D01*
X555785Y334561D01*
X555845Y334675D01*
X555896Y334785D01*
X555937Y334892D01*
X555969Y334995D01*
X555993Y335095D01*
X556006Y335191D01*
X556011Y335281D01*
X556008Y335391D01*
X555999Y335495D01*
X555984Y335587D01*
X555963Y335666D01*
X555936Y335734D01*
X555903Y335789D01*
X555864Y335831D01*
X555819Y335862D01*
X555768Y335880D01*
X555711Y335887D01*
X556911D01*
X556854Y335880D01*
D02*
G37*
G36*
X580115Y332899D02*
X580127Y332879D01*
X580147Y332862D01*
X580176Y332846D01*
X580215Y332834D01*
X580262Y332823D01*
X580319Y332815D01*
X580384Y332809D01*
X580543Y332804D01*
Y332204D01*
X580447Y332203D01*
X580217Y332186D01*
X580160Y332176D01*
X580113Y332164D01*
X580076Y332150D01*
X580049Y332133D01*
X580032Y332114D01*
X580025Y332093D01*
X580113Y332922D01*
X580115Y332899D01*
D02*
G37*
G36*
X559413Y331967D02*
X559388Y331959D01*
X559358Y331943D01*
X559321Y331918D01*
X559277Y331886D01*
X559172Y331797D01*
X558965Y331603D01*
X558883Y331522D01*
X558450Y331938D01*
X558562Y332054D01*
X558741Y332265D01*
X558807Y332360D01*
X558858Y332449D01*
X558894Y332530D01*
X558915Y332604D01*
X558921Y332672D01*
X558911Y332733D01*
X558887Y332786D01*
X559413Y331967D01*
D02*
G37*
G36*
X576935Y332155D02*
X576925Y332122D01*
X576916Y332078D01*
X576908Y332025D01*
X576896Y331887D01*
X576887Y331604D01*
X576887Y331489D01*
X576287D01*
X576286Y331604D01*
X576257Y332078D01*
X576249Y332122D01*
X576238Y332155D01*
X576227Y332178D01*
X576946D01*
X576935Y332155D01*
D02*
G37*
G36*
X575360D02*
X575350Y332122D01*
X575341Y332078D01*
X575333Y332025D01*
X575321Y331887D01*
X575312Y331604D01*
X575312Y331489D01*
X574712D01*
X574711Y331604D01*
X574683Y332078D01*
X574674Y332122D01*
X574664Y332155D01*
X574652Y332178D01*
X575371D01*
X575360Y332155D01*
D02*
G37*
G36*
X573785D02*
X573775Y332122D01*
X573766Y332078D01*
X573758Y332025D01*
X573746Y331887D01*
X573738Y331604D01*
X573737Y331489D01*
X573137D01*
X573136Y331604D01*
X573108Y332078D01*
X573099Y332122D01*
X573089Y332155D01*
X573077Y332178D01*
X573797D01*
X573785Y332155D01*
D02*
G37*
G36*
X572210D02*
X572200Y332122D01*
X572191Y332078D01*
X572184Y332025D01*
X572172Y331887D01*
X572163Y331604D01*
X572162Y331489D01*
X571562D01*
X571562Y331604D01*
X571533Y332078D01*
X571524Y332122D01*
X571514Y332155D01*
X571503Y332178D01*
X572222D01*
X572210Y332155D01*
D02*
G37*
G36*
X570636D02*
X570625Y332122D01*
X570617Y332078D01*
X570609Y332025D01*
X570597Y331887D01*
X570588Y331604D01*
X570587Y331489D01*
X569987D01*
X569987Y331604D01*
X569958Y332078D01*
X569949Y332122D01*
X569939Y332155D01*
X569928Y332178D01*
X570647D01*
X570636Y332155D01*
D02*
G37*
G36*
X569061D02*
X569051Y332122D01*
X569042Y332078D01*
X569034Y332025D01*
X569022Y331887D01*
X569013Y331604D01*
X569013Y331489D01*
X568413D01*
X568412Y331604D01*
X568383Y332078D01*
X568374Y332122D01*
X568364Y332155D01*
X568353Y332178D01*
X569072D01*
X569061Y332155D01*
D02*
G37*
G36*
X567486D02*
X567476Y332122D01*
X567467Y332078D01*
X567459Y332025D01*
X567447Y331887D01*
X567438Y331604D01*
X567438Y331489D01*
X566838D01*
X566837Y331604D01*
X566809Y332078D01*
X566800Y332122D01*
X566789Y332155D01*
X566778Y332178D01*
X567497D01*
X567486Y332155D01*
D02*
G37*
G36*
X562762D02*
X562751Y332122D01*
X562743Y332078D01*
X562735Y332025D01*
X562723Y331887D01*
X562714Y331604D01*
X562713Y331489D01*
X562113D01*
X562113Y331604D01*
X562084Y332078D01*
X562075Y332122D01*
X562065Y332155D01*
X562054Y332178D01*
X562773D01*
X562762Y332155D01*
D02*
G37*
G36*
X561187D02*
X561177Y332122D01*
X561168Y332078D01*
X561160Y332025D01*
X561148Y331887D01*
X561139Y331604D01*
X561139Y331489D01*
X560539D01*
X560538Y331604D01*
X560509Y332078D01*
X560500Y332122D01*
X560490Y332155D01*
X560479Y332178D01*
X561198D01*
X561187Y332155D01*
D02*
G37*
G36*
X567350Y330426D02*
X567291Y330364D01*
X567240Y330304D01*
X567196Y330246D01*
X567160Y330191D01*
X567132Y330138D01*
X567112Y330086D01*
X567100Y330038D01*
X567096Y329991D01*
X567099Y329946D01*
X567110Y329904D01*
X566404Y330610D01*
X566446Y330599D01*
X566491Y330595D01*
X566538Y330600D01*
X566586Y330612D01*
X566638Y330632D01*
X566691Y330660D01*
X566746Y330696D01*
X566804Y330739D01*
X566864Y330791D01*
X566926Y330850D01*
X567350Y330426D01*
D02*
G37*
G36*
X573743Y330715D02*
X573761Y330615D01*
X573790Y330522D01*
X573832Y330436D01*
X573885Y330358D01*
X573950Y330286D01*
X574027Y330221D01*
X574116Y330164D01*
X574216Y330113D01*
X574328Y330069D01*
X572845Y329371D01*
X572901Y329522D01*
X573032Y329955D01*
X573064Y330092D01*
X573111Y330356D01*
X573125Y330482D01*
X573137Y330724D01*
X573737Y330821D01*
X573743Y330715D01*
D02*
G37*
G36*
X619727Y330053D02*
X619637Y329951D01*
X619558Y329849D01*
X619490Y329748D01*
X619432Y329646D01*
X619384Y329546D01*
X619347Y329446D01*
X619321Y329346D01*
X619305Y329247D01*
X619300Y329149D01*
X618700D01*
X618695Y329247D01*
X618679Y329346D01*
X618653Y329446D01*
X618616Y329546D01*
X618568Y329646D01*
X618510Y329748D01*
X618442Y329849D01*
X618363Y329951D01*
X618273Y330053D01*
X618173Y330156D01*
X619827D01*
X619727Y330053D01*
D02*
G37*
G36*
X619303Y328677D02*
X619312Y328573D01*
X619327Y328482D01*
X619348Y328402D01*
X619375Y328335D01*
X619408Y328280D01*
X619447Y328237D01*
X619492Y328206D01*
X619543Y328188D01*
X619600Y328182D01*
X618400D01*
X618457Y328188D01*
X618508Y328206D01*
X618553Y328237D01*
X618592Y328280D01*
X618625Y328335D01*
X618652Y328402D01*
X618673Y328482D01*
X618688Y328573D01*
X618697Y328677D01*
X618700Y328794D01*
X619300D01*
X619303Y328677D01*
D02*
G37*
G36*
X578505Y327452D02*
X578521Y327354D01*
X578547Y327254D01*
X578584Y327154D01*
X578632Y327053D01*
X578690Y326953D01*
X578758Y326851D01*
X578837Y326749D01*
X578927Y326646D01*
X579027Y326543D01*
X577373D01*
X577473Y326646D01*
X577563Y326749D01*
X577642Y326851D01*
X577710Y326953D01*
X577768Y327053D01*
X577816Y327154D01*
X577853Y327254D01*
X577879Y327354D01*
X577895Y327452D01*
X577900Y327551D01*
X578500D01*
X578505Y327452D01*
D02*
G37*
G36*
X633843Y331387D02*
X632986Y330410D01*
X632776Y330123D01*
X632605Y329855D01*
X632471Y329607D01*
X632376Y329377D01*
X632319Y329166D01*
X632303Y329000D01*
X632319Y328834D01*
X632376Y328623D01*
X632471Y328394D01*
X632605Y328145D01*
X632776Y327877D01*
X632986Y327590D01*
X633519Y326958D01*
X633843Y326613D01*
X634205Y326249D01*
X629795D01*
X630157Y326613D01*
X631014Y327590D01*
X631224Y327877D01*
X631395Y328145D01*
X631529Y328394D01*
X631624Y328623D01*
X631681Y328834D01*
X631698Y329000D01*
X631681Y329166D01*
X631624Y329377D01*
X631529Y329607D01*
X631395Y329855D01*
X631224Y330123D01*
X631014Y330410D01*
X630481Y331042D01*
X630157Y331387D01*
X629795Y331751D01*
X634205D01*
X633843Y331387D01*
D02*
G37*
G36*
X557805Y324752D02*
X557821Y324654D01*
X557847Y324554D01*
X557884Y324454D01*
X557932Y324354D01*
X557990Y324253D01*
X558058Y324151D01*
X558137Y324049D01*
X558227Y323946D01*
X558327Y323844D01*
X556673D01*
X556773Y323946D01*
X556863Y324049D01*
X556942Y324151D01*
X557010Y324253D01*
X557068Y324354D01*
X557116Y324454D01*
X557153Y324554D01*
X557179Y324654D01*
X557195Y324752D01*
X557200Y324851D01*
X557800D01*
X557805Y324752D01*
D02*
G37*
G36*
X541184Y328266D02*
Y326838D01*
X534923Y320577D01*
X534746Y320312D01*
X534684Y320000D01*
X534684Y320000D01*
Y315621D01*
X534661Y315579D01*
X534647Y315432D01*
X534611Y315298D01*
X534539Y315125D01*
X534428Y314919D01*
X534277Y314682D01*
X534092Y314428D01*
X533261Y313483D01*
X532912Y313131D01*
X532901Y313106D01*
X532897Y313103D01*
X532312Y312340D01*
X532041Y311687D01*
X531541Y311786D01*
Y321859D01*
X533900D01*
X533900Y321859D01*
X534283Y322017D01*
X534283Y322017D01*
X540722Y328457D01*
X541184Y328266D01*
D02*
G37*
G36*
X631968Y320851D02*
X631455Y320849D01*
X630159Y320765D01*
X629808Y320710D01*
X629497Y320642D01*
X629227Y320560D01*
X628997Y320465D01*
X628808Y320356D01*
X628659Y320235D01*
X628235Y320659D01*
X628357Y320808D01*
X628465Y320997D01*
X628560Y321227D01*
X628642Y321497D01*
X628710Y321808D01*
X628765Y322159D01*
X628834Y322983D01*
X628849Y323455D01*
X628851Y323969D01*
X631968Y320851D01*
D02*
G37*
G36*
X587423Y334023D02*
X607130Y314316D01*
X606847Y313892D01*
X606453Y314056D01*
X605645Y314162D01*
X605643Y314221D01*
X605591Y314332D01*
X605555Y314510D01*
X605379Y314775D01*
X586816Y333338D01*
Y334085D01*
X587316Y334184D01*
X587423Y334023D01*
D02*
G37*
G36*
X605106Y314095D02*
X605119Y314002D01*
X605141Y313920D01*
X605171Y313849D01*
X605210Y313789D01*
X605258Y313739D01*
X605314Y313701D01*
X605378Y313673D01*
X605452Y313656D01*
X605534Y313649D01*
X604108Y313325D01*
X604183Y313369D01*
X604250Y313422D01*
X604309Y313485D01*
X604360Y313558D01*
X604403Y313640D01*
X604439Y313733D01*
X604466Y313835D01*
X604486Y313946D01*
X604498Y314067D01*
X604502Y314198D01*
X605102D01*
X605106Y314095D01*
D02*
G37*
G36*
X595819Y315334D02*
X595876Y315123D01*
X595971Y314894D01*
X596105Y314645D01*
X596276Y314377D01*
X596486Y314090D01*
X597019Y313458D01*
X597343Y313113D01*
X597705Y312749D01*
X593295D01*
X593657Y313113D01*
X594514Y314090D01*
X594724Y314377D01*
X594895Y314645D01*
X595029Y314894D01*
X595124Y315123D01*
X595181Y315334D01*
X595200Y315525D01*
X595800D01*
X595819Y315334D01*
D02*
G37*
G36*
X585819D02*
X585876Y315123D01*
X585971Y314894D01*
X586105Y314645D01*
X586276Y314377D01*
X586486Y314090D01*
X587019Y313458D01*
X587343Y313113D01*
X587705Y312749D01*
X583295D01*
X583657Y313113D01*
X584514Y314090D01*
X584724Y314377D01*
X584895Y314645D01*
X585029Y314894D01*
X585124Y315123D01*
X585181Y315334D01*
X585200Y315525D01*
X585800D01*
X585819Y315334D01*
D02*
G37*
G36*
X575819D02*
X575876Y315123D01*
X575971Y314894D01*
X576105Y314645D01*
X576276Y314377D01*
X576486Y314090D01*
X577019Y313458D01*
X577343Y313113D01*
X577705Y312749D01*
X573295D01*
X573657Y313113D01*
X574514Y314090D01*
X574724Y314377D01*
X574895Y314645D01*
X575029Y314894D01*
X575124Y315123D01*
X575181Y315334D01*
X575200Y315525D01*
X575800D01*
X575819Y315334D01*
D02*
G37*
G36*
X545819D02*
X545876Y315123D01*
X545971Y314894D01*
X546105Y314645D01*
X546276Y314377D01*
X546486Y314090D01*
X547019Y313458D01*
X547343Y313113D01*
X547705Y312749D01*
X543295D01*
X543657Y313113D01*
X544514Y314090D01*
X544724Y314377D01*
X544895Y314645D01*
X545029Y314894D01*
X545124Y315123D01*
X545181Y315334D01*
X545200Y315525D01*
X545800D01*
X545819Y315334D01*
D02*
G37*
G36*
X535819D02*
X535876Y315123D01*
X535971Y314894D01*
X536105Y314645D01*
X536276Y314377D01*
X536486Y314090D01*
X537019Y313458D01*
X537343Y313113D01*
X537705Y312749D01*
X533295D01*
X533657Y313113D01*
X534514Y314090D01*
X534724Y314377D01*
X534895Y314645D01*
X535029Y314894D01*
X535124Y315123D01*
X535181Y315334D01*
X535200Y315525D01*
X535800D01*
X535819Y315334D01*
D02*
G37*
G36*
X564488Y330823D02*
X564688Y330563D01*
X564416Y330156D01*
X564286Y329500D01*
X564416Y328844D01*
X564788Y328288D01*
X565344Y327916D01*
X566000Y327786D01*
X566656Y327916D01*
X567212Y328288D01*
X567397Y328565D01*
X567897Y328413D01*
Y325288D01*
X567897Y325287D01*
X567959Y324975D01*
X568136Y324711D01*
X569184Y323662D01*
Y312449D01*
X568688Y312340D01*
X568103Y313103D01*
X567341Y313688D01*
X566453Y314056D01*
X565500Y314181D01*
X564547Y314056D01*
X564424Y314004D01*
X564364Y314011D01*
X564151Y313950D01*
X563974Y313913D01*
X563812Y313895D01*
X563679Y313894D01*
X563229Y314045D01*
Y330602D01*
X563488Y330786D01*
Y333311D01*
X564488D01*
Y330823D01*
D02*
G37*
G36*
X543184Y325986D02*
Y324838D01*
X539423Y321077D01*
X539246Y320812D01*
X539184Y320500D01*
X539184Y320500D01*
Y312449D01*
X538688Y312340D01*
X538103Y313103D01*
X538099Y313106D01*
X538088Y313131D01*
X537732Y313489D01*
X537423Y313818D01*
X536912Y314424D01*
X536723Y314682D01*
X536572Y314919D01*
X536461Y315125D01*
X536389Y315299D01*
X536353Y315432D01*
X536339Y315579D01*
X536316Y315621D01*
Y319662D01*
X542577Y325923D01*
X542577Y325923D01*
X542684Y326084D01*
X543184Y325986D01*
D02*
G37*
G36*
X553220Y314767D02*
X553351Y314698D01*
X553542Y314610D01*
X554907Y314069D01*
X556561Y313465D01*
X552556Y311620D01*
X552702Y312033D01*
X552816Y312419D01*
X552898Y312779D01*
X552947Y313112D01*
X552964Y313418D01*
X552949Y313698D01*
X552902Y313951D01*
X552822Y314178D01*
X552711Y314378D01*
X552567Y314551D01*
X553149Y314818D01*
X553220Y314767D01*
D02*
G37*
G36*
X562770Y313670D02*
X562925Y313563D01*
X563089Y313477D01*
X563263Y313414D01*
X563447Y313372D01*
X563641Y313352D01*
X563845Y313354D01*
X564058Y313378D01*
X564281Y313424D01*
X564514Y313491D01*
X562509Y311486D01*
X562576Y311719D01*
X562622Y311942D01*
X562646Y312155D01*
X562648Y312359D01*
X562628Y312553D01*
X562586Y312737D01*
X562523Y312911D01*
X562437Y313075D01*
X562330Y313230D01*
X562201Y313374D01*
X562626Y313799D01*
X562770Y313670D01*
D02*
G37*
G36*
X612308Y314144D02*
X612497Y314035D01*
X612727Y313940D01*
X612997Y313858D01*
X613308Y313790D01*
X613659Y313735D01*
X614483Y313666D01*
X614955Y313651D01*
X615469Y313649D01*
X612351Y310531D01*
X612349Y311045D01*
X612265Y312341D01*
X612210Y312692D01*
X612142Y313003D01*
X612060Y313273D01*
X611965Y313503D01*
X611857Y313692D01*
X611735Y313841D01*
X612159Y314265D01*
X612308Y314144D01*
D02*
G37*
G36*
X609265Y303841D02*
X609143Y303692D01*
X609035Y303503D01*
X608940Y303273D01*
X608858Y303003D01*
X608790Y302692D01*
X608735Y302341D01*
X608666Y301517D01*
X608651Y301045D01*
X608649Y300532D01*
X605532Y303649D01*
X606045Y303651D01*
X607341Y303735D01*
X607692Y303790D01*
X608003Y303858D01*
X608273Y303940D01*
X608503Y304035D01*
X608692Y304144D01*
X608841Y304265D01*
X609265Y303841D01*
D02*
G37*
G36*
X599265D02*
X599144Y303692D01*
X599035Y303503D01*
X598940Y303273D01*
X598858Y303003D01*
X598790Y302692D01*
X598735Y302341D01*
X598666Y301517D01*
X598651Y301045D01*
X598649Y300532D01*
X595532Y303649D01*
X596045Y303651D01*
X597341Y303735D01*
X597692Y303790D01*
X598003Y303858D01*
X598273Y303940D01*
X598503Y304035D01*
X598692Y304144D01*
X598841Y304265D01*
X599265Y303841D01*
D02*
G37*
G36*
X589265D02*
X589144Y303692D01*
X589035Y303503D01*
X588940Y303273D01*
X588858Y303003D01*
X588790Y302692D01*
X588735Y302341D01*
X588665Y301517D01*
X588651Y301045D01*
X588649Y300532D01*
X585532Y303649D01*
X586045Y303651D01*
X587341Y303735D01*
X587692Y303790D01*
X588003Y303858D01*
X588273Y303940D01*
X588503Y304035D01*
X588692Y304144D01*
X588841Y304265D01*
X589265Y303841D01*
D02*
G37*
G36*
X579265D02*
X579143Y303692D01*
X579035Y303503D01*
X578940Y303273D01*
X578858Y303003D01*
X578790Y302692D01*
X578735Y302341D01*
X578665Y301517D01*
X578651Y301045D01*
X578649Y300532D01*
X575531Y303649D01*
X576045Y303651D01*
X577341Y303735D01*
X577692Y303790D01*
X578003Y303858D01*
X578273Y303940D01*
X578503Y304035D01*
X578692Y304144D01*
X578841Y304265D01*
X579265Y303841D01*
D02*
G37*
G36*
X569265D02*
X569143Y303692D01*
X569035Y303503D01*
X568940Y303273D01*
X568858Y303003D01*
X568790Y302692D01*
X568735Y302341D01*
X568666Y301517D01*
X568651Y301045D01*
X568649Y300532D01*
X565531Y303649D01*
X566045Y303651D01*
X567341Y303735D01*
X567692Y303790D01*
X568003Y303858D01*
X568273Y303940D01*
X568503Y304035D01*
X568692Y304144D01*
X568841Y304265D01*
X569265Y303841D01*
D02*
G37*
G36*
X559265D02*
X559143Y303692D01*
X559035Y303503D01*
X558940Y303273D01*
X558858Y303003D01*
X558790Y302692D01*
X558735Y302341D01*
X558666Y301517D01*
X558651Y301045D01*
X558649Y300532D01*
X555532Y303649D01*
X556045Y303651D01*
X557341Y303735D01*
X557692Y303790D01*
X558003Y303858D01*
X558273Y303940D01*
X558503Y304035D01*
X558692Y304144D01*
X558841Y304265D01*
X559265Y303841D01*
D02*
G37*
G36*
X549265D02*
X549144Y303692D01*
X549035Y303503D01*
X548940Y303273D01*
X548858Y303003D01*
X548790Y302692D01*
X548735Y302341D01*
X548666Y301517D01*
X548651Y301045D01*
X548649Y300532D01*
X545532Y303649D01*
X546045Y303651D01*
X547341Y303735D01*
X547692Y303790D01*
X548003Y303858D01*
X548273Y303940D01*
X548503Y304035D01*
X548692Y304144D01*
X548841Y304265D01*
X549265Y303841D01*
D02*
G37*
G36*
X539265D02*
X539144Y303692D01*
X539035Y303503D01*
X538940Y303273D01*
X538858Y303003D01*
X538790Y302692D01*
X538735Y302341D01*
X538665Y301517D01*
X538651Y301045D01*
X538649Y300532D01*
X535532Y303649D01*
X536045Y303651D01*
X537341Y303735D01*
X537692Y303790D01*
X538003Y303858D01*
X538273Y303940D01*
X538503Y304035D01*
X538692Y304144D01*
X538841Y304265D01*
X539265Y303841D01*
D02*
G37*
%LPC*%
G36*
X517000Y367500D02*
X513000D01*
Y363500D01*
X513350D01*
X513586Y363000D01*
X513487Y362500D01*
X513602Y361921D01*
X513930Y361430D01*
X514421Y361102D01*
X515000Y360987D01*
X515579Y361102D01*
X516070Y361430D01*
X516398Y361921D01*
X516513Y362500D01*
X516414Y363000D01*
X516650Y363500D01*
X517000D01*
Y367500D01*
D02*
G37*
%LPD*%
G36*
X515300Y364024D02*
X515600D01*
X515543Y364018D01*
X515492Y364000D01*
X515447Y363969D01*
X515408Y363926D01*
X515375Y363871D01*
X515348Y363804D01*
X515337Y363761D01*
X515362Y363683D01*
X515397Y363600D01*
X515440Y363518D01*
X515491Y363437D01*
X515549Y363358D01*
X515615Y363280D01*
X515689Y363203D01*
X514311D01*
X514385Y363280D01*
X514451Y363358D01*
X514509Y363437D01*
X514560Y363518D01*
X514603Y363600D01*
X514638Y363683D01*
X514663Y363761D01*
X514652Y363804D01*
X514625Y363871D01*
X514592Y363926D01*
X514553Y363969D01*
X514508Y364000D01*
X514457Y364018D01*
X514400Y364024D01*
X514700D01*
X514700Y364028D01*
X515300D01*
X515300Y364024D01*
D02*
G37*
G36*
X621451Y359344D02*
X621481Y359272D01*
X621531Y359208D01*
X621601Y359153D01*
X621691Y359106D01*
X621801Y359068D01*
X621931Y359038D01*
X622081Y359017D01*
X622251Y359004D01*
X622441Y359000D01*
Y358000D01*
X622251Y357995D01*
X622081Y357980D01*
X621931Y357955D01*
X621801Y357920D01*
X621691Y357875D01*
X621601Y357820D01*
X621531Y357755D01*
X621481Y357680D01*
X621451Y357595D01*
X621441Y357500D01*
Y359425D01*
X621451Y359344D01*
D02*
G37*
G36*
X617946Y349727D02*
X618049Y349637D01*
X618151Y349558D01*
X618253Y349490D01*
X618354Y349432D01*
X618454Y349384D01*
X618554Y349347D01*
X618653Y349321D01*
X618752Y349305D01*
X618851Y349300D01*
Y348700D01*
X618752Y348695D01*
X618653Y348679D01*
X618554Y348653D01*
X618454Y348616D01*
X618354Y348568D01*
X618253Y348510D01*
X618151Y348442D01*
X618049Y348363D01*
X617946Y348273D01*
X617843Y348173D01*
Y349827D01*
X617946Y349727D01*
D02*
G37*
G36*
X628808Y347644D02*
X628997Y347535D01*
X629227Y347440D01*
X629497Y347358D01*
X629808Y347290D01*
X630159Y347235D01*
X630983Y347165D01*
X631455Y347151D01*
X631968Y347149D01*
X628851Y344032D01*
X628849Y344545D01*
X628765Y345841D01*
X628710Y346192D01*
X628642Y346503D01*
X628560Y346773D01*
X628465Y347003D01*
X628357Y347192D01*
X628235Y347341D01*
X628659Y347765D01*
X628808Y347644D01*
D02*
G37*
G36*
X643976Y341512D02*
X643771Y341268D01*
X643590Y341018D01*
X643434Y340764D01*
X643301Y340504D01*
X643193Y340238D01*
X643108Y339967D01*
X643048Y339691D01*
X643012Y339410D01*
X643000Y339124D01*
X641000D01*
X640988Y339410D01*
X640952Y339691D01*
X640892Y339967D01*
X640807Y340238D01*
X640699Y340504D01*
X640566Y340764D01*
X640410Y341018D01*
X640229Y341268D01*
X640024Y341512D01*
X639795Y341751D01*
X644205D01*
X643976Y341512D01*
D02*
G37*
G36*
X643012Y338590D02*
X643048Y338309D01*
X643108Y338033D01*
X643193Y337762D01*
X643301Y337496D01*
X643434Y337236D01*
X643590Y336982D01*
X643771Y336732D01*
X643976Y336488D01*
X644205Y336249D01*
X639795D01*
X640024Y336488D01*
X640229Y336732D01*
X640410Y336982D01*
X640566Y337236D01*
X640699Y337496D01*
X640807Y337762D01*
X640892Y338033D01*
X640952Y338309D01*
X640988Y338590D01*
X641000Y338876D01*
X643000D01*
X643012Y338590D01*
D02*
G37*
G36*
X643976Y331512D02*
X643771Y331268D01*
X643590Y331018D01*
X643434Y330764D01*
X643301Y330504D01*
X643193Y330238D01*
X643108Y329967D01*
X643048Y329692D01*
X643012Y329410D01*
X643000Y329124D01*
X641000D01*
X640988Y329410D01*
X640952Y329692D01*
X640892Y329967D01*
X640807Y330238D01*
X640699Y330504D01*
X640566Y330764D01*
X640410Y331018D01*
X640229Y331268D01*
X640024Y331512D01*
X639795Y331751D01*
X644205D01*
X643976Y331512D01*
D02*
G37*
G36*
X643012Y328590D02*
X643048Y328309D01*
X643108Y328032D01*
X643193Y327762D01*
X643301Y327497D01*
X643434Y327236D01*
X643590Y326982D01*
X643771Y326732D01*
X643976Y326488D01*
X644205Y326249D01*
X639795D01*
X640024Y326488D01*
X640229Y326732D01*
X640410Y326982D01*
X640566Y327236D01*
X640699Y327497D01*
X640807Y327762D01*
X640892Y328032D01*
X640952Y328309D01*
X640988Y328590D01*
X641000Y328876D01*
X643000D01*
X643012Y328590D01*
D02*
G37*
D13*
X560839Y344138D02*
Y346500D01*
Y342169D02*
Y344138D01*
Y342169D02*
X565169D01*
X588415Y354415D02*
X588600Y354600D01*
X585751Y353587D02*
X586579Y354415D01*
X588415D01*
X582689Y353587D02*
X585751D01*
X578161Y346500D02*
Y350831D01*
X573831Y346500D02*
Y350831D01*
X539028Y344900D02*
X547600D01*
X620953Y358500D02*
Y360084D01*
Y357953D02*
Y358500D01*
X647500D01*
X618500Y355500D02*
Y356047D01*
X620953Y358500D01*
Y360084D02*
X622000Y361131D01*
X618500Y355500D02*
X620953Y357953D01*
X622000Y361131D02*
Y361500D01*
D14*
X560839Y344138D02*
X567138D01*
X556311D02*
X560839D01*
Y346500D02*
Y350831D01*
X563988Y333311D02*
Y340988D01*
X565563Y333311D02*
Y342563D01*
X590500Y305500D02*
Y319500D01*
X578161Y333311D02*
X578197Y333275D01*
Y331803D02*
Y333275D01*
Y331803D02*
X590500Y319500D01*
X585189Y355161D02*
X586426Y356399D01*
X586616D01*
X582689Y355161D02*
X585189D01*
X587988Y352000D02*
X588000Y351988D01*
X582689Y352012D02*
X582701Y352000D01*
X587988D01*
X607900Y335931D02*
X618579Y325253D01*
X607900Y335931D02*
Y369700D01*
X583724Y356736D02*
X583818Y356830D01*
X582689Y356736D02*
X583724D01*
X583818Y356830D02*
X583830D01*
X606500Y379500D01*
X578200Y325700D02*
Y327819D01*
X575012Y331007D02*
X578200Y327819D01*
X575012Y331007D02*
Y333311D01*
X582689Y347287D02*
X582725Y347252D01*
X592248D01*
X592500Y347000D01*
X560839Y350831D02*
X565169Y355161D01*
X568713D02*
Y359689D01*
X569500Y346500D02*
Y350831D01*
X573437Y329940D02*
Y333311D01*
Y329940D02*
X573949Y329428D01*
Y328951D02*
Y329428D01*
X585500Y310500D02*
Y322400D01*
X576587Y331313D02*
X585500Y322400D01*
X576587Y331313D02*
Y333311D01*
X595500Y310500D02*
Y317547D01*
X580543Y332504D02*
X595500Y317547D01*
X579736Y332591D02*
X579823Y332504D01*
X580543D01*
X579736Y332591D02*
Y333311D01*
X571862Y326838D02*
Y333311D01*
X580500Y305500D02*
Y318200D01*
X571862Y326838D02*
X580500Y318200D01*
X570287Y325913D02*
X575500Y320700D01*
X570287Y325913D02*
Y333311D01*
X575500Y310500D02*
Y320700D01*
X542000Y334600D02*
X553113Y345713D01*
X542000Y326500D02*
Y334600D01*
X553113Y345713D02*
X556311D01*
X546500Y363500D02*
Y379500D01*
X556275Y355197D02*
X556311Y355161D01*
X554803Y355197D02*
X556275D01*
X546500Y363500D02*
X554803Y355197D01*
X565981Y378981D02*
X566500Y379500D01*
X565981Y362679D02*
Y378981D01*
X565563Y359689D02*
Y362261D01*
X565981Y362679D01*
X562000Y362698D02*
X562413Y362285D01*
X562000Y362698D02*
Y366500D01*
X562413Y359689D02*
Y362285D01*
X554403Y337803D02*
X555758D01*
X552500Y335900D02*
X554403Y337803D01*
X555758D02*
X555794Y337839D01*
X552500Y315042D02*
Y335900D01*
Y315042D02*
X555500Y312042D01*
X588000Y334600D02*
X610000Y312600D01*
X588000Y334600D02*
Y336000D01*
X610000Y305000D02*
Y312600D01*
X536500Y361400D02*
Y379500D01*
X549038Y348862D02*
X556311D01*
X536500Y361400D02*
X549038Y348862D01*
X531500Y364000D02*
Y384500D01*
X548213Y347287D02*
X556311D01*
X531500Y364000D02*
X548213Y347287D01*
X573437Y359689D02*
Y364948D01*
X573500Y365011D02*
Y369200D01*
X573437Y364948D02*
X573500Y365011D01*
X571826Y359725D02*
X571862Y359689D01*
X571826Y359725D02*
Y365674D01*
X571600Y365900D02*
X571826Y365674D01*
X569700Y372700D02*
X576500Y379500D01*
X569700Y361374D02*
X569906Y361168D01*
X569700Y361374D02*
Y372700D01*
X570287Y359689D02*
Y360724D01*
X569906Y361105D02*
X570287Y360724D01*
X569906Y361105D02*
Y361168D01*
X559200Y363800D02*
X560839Y362161D01*
X559200Y363800D02*
Y370400D01*
X560839Y359689D02*
Y362161D01*
X559264Y359689D02*
Y361536D01*
X556500Y364300D02*
X559264Y361536D01*
X556500Y364300D02*
Y379500D01*
X583957Y350204D02*
X590404D01*
X582689Y350437D02*
X583724D01*
X583957Y350204D01*
X590404D02*
X602437Y362237D01*
Y369437D01*
X609900Y372200D02*
X610237Y371863D01*
X611519D02*
X618500Y364882D01*
X610237Y371863D02*
X611519D01*
X562413Y313587D02*
Y333311D01*
Y313587D02*
X565500Y310500D01*
X573500Y369200D02*
X580950Y376650D01*
Y383950D01*
X574936Y359765D02*
Y367260D01*
X586500Y378824D01*
X559200Y370400D02*
X560839Y372039D01*
Y383839D01*
X552000Y361047D02*
Y385000D01*
Y361047D02*
X556311Y356736D01*
X619000Y325674D02*
Y331000D01*
X618579Y325253D02*
X619000Y325674D01*
X618579Y324269D02*
Y325253D01*
X591362Y348862D02*
X604000Y361500D01*
Y369236D02*
X609796Y375032D01*
X604000Y361500D02*
Y369236D01*
X582689Y348862D02*
X591362D01*
X612000Y379000D02*
Y385000D01*
X602437Y369437D02*
X612000Y379000D01*
X585937Y342563D02*
X609500Y319000D01*
X627000D02*
X632000Y324000D01*
X609500Y319000D02*
X627000D01*
X617000Y349000D02*
X627000D01*
X632000Y344000D01*
X616000Y371000D02*
X618500D01*
X609796Y375032D02*
X612032D01*
X616500Y379500D01*
X574936Y359765D02*
X575012Y359689D01*
X586500Y378824D02*
Y379500D01*
X567138Y359689D02*
Y373638D01*
X572000Y378500D01*
Y385000D01*
X576500Y389500D01*
X582737Y371000D02*
X585000D01*
X576536Y364799D02*
X582737Y371000D01*
X553488Y352012D02*
X556311D01*
X543500Y360000D02*
X545500D01*
X553488Y352012D01*
X589787Y345713D02*
X592500Y343000D01*
X582689Y345713D02*
X589787D01*
X587362Y344138D02*
X592500Y339000D01*
X582689Y344138D02*
X587362D01*
X612000Y385000D02*
X616500Y389500D01*
X584622Y339377D02*
X588000Y336000D01*
X582725Y339377D02*
X584622D01*
X582689Y340988D02*
X585012D01*
X615500Y310500D01*
X582689Y339413D02*
X582725Y339377D01*
X632000Y324000D02*
Y334000D01*
X582689Y342563D02*
X585937D01*
X551477Y351000D02*
X552040Y350437D01*
X556311D01*
X551000Y351000D02*
X551477D01*
X565563Y342563D02*
X567138Y344138D01*
X569500Y346500D01*
X559203Y332266D02*
Y333250D01*
X557500Y323000D02*
Y330563D01*
X559203Y333250D02*
X559264Y333311D01*
X557500Y330563D02*
X559203Y332266D01*
X559264Y333311D02*
Y336264D01*
X556311Y334189D02*
Y336264D01*
X563994Y363494D02*
X564000Y363500D01*
X563988Y359689D02*
X563994Y359695D01*
Y363494D01*
X566500Y330000D02*
X567138Y330638D01*
Y333311D01*
X568713Y325287D02*
X570000Y324000D01*
Y305000D02*
Y324000D01*
X568713Y325287D02*
Y333311D01*
X575804Y355161D02*
X577374Y356732D01*
X573831Y355161D02*
X575804D01*
X563988Y340988D02*
X565169Y342169D01*
X559264Y336264D02*
X563988Y340988D01*
X553913Y353587D02*
X556311D01*
X541500Y366000D02*
X553913Y353587D01*
X576536Y359739D02*
X576587Y359689D01*
X576536Y359739D02*
Y364799D01*
X552063Y342563D02*
X556311D01*
X553488Y340988D02*
X556311D01*
X582689Y336264D02*
X583287D01*
X583373Y336177D01*
Y332627D02*
Y336177D01*
X560839Y305839D02*
Y333311D01*
X553913Y339413D02*
X556311D01*
X579736Y359689D02*
Y362736D01*
X578136Y359714D02*
X578161Y359689D01*
X578136Y359714D02*
Y364136D01*
X582689Y337839D02*
X584249D01*
X604802Y311198D02*
X605500Y310500D01*
X604802Y311198D02*
Y314198D01*
X586000Y333000D02*
X604802Y314198D01*
X586000Y333000D02*
Y336088D01*
X584249Y337839D02*
X586000Y336088D01*
X586100Y369100D02*
X596500Y379500D01*
X583100Y369100D02*
X586100D01*
X578136Y364136D02*
X583100Y369100D01*
X601500Y384500D02*
X606500Y389500D01*
X601500Y378000D02*
Y384500D01*
X591000Y367500D02*
X601500Y378000D01*
X584500Y367500D02*
X591000D01*
X579736Y362736D02*
X584500Y367500D01*
X535500Y320000D02*
X542000Y326500D01*
X535500Y310500D02*
Y320000D01*
X580950Y383950D02*
X586500Y389500D01*
X550500Y336000D02*
X553913Y339413D01*
X550500Y305500D02*
Y336000D01*
X545500Y300500D02*
X550500Y305500D01*
X605500Y300500D02*
X610000Y305000D01*
X555500Y300500D02*
X560839Y305839D01*
X595500Y300500D02*
X600000Y305000D01*
Y316000D01*
X583373Y332627D02*
X600000Y316000D01*
X575500Y300500D02*
X580500Y305500D01*
X545500Y333000D02*
X553488Y340988D01*
X545500Y310500D02*
Y333000D01*
X544000Y334500D02*
X552063Y342563D01*
X544000Y324500D02*
Y334500D01*
X540000Y320500D02*
X544000Y324500D01*
X540000Y305000D02*
Y320500D01*
X535500Y300500D02*
X540000Y305000D01*
X555500Y310500D02*
Y312042D01*
X585500Y300500D02*
X590500Y305500D01*
X565500Y300500D02*
X570000Y305000D01*
X531500Y384500D02*
X536500Y389500D01*
X590950Y383950D02*
X596500Y389500D01*
X590950Y376950D02*
Y383950D01*
X585000Y371000D02*
X590950Y376950D01*
X560839Y383839D02*
X566500Y389500D01*
X541500Y384500D02*
X546500Y389500D01*
X541500Y366000D02*
Y384500D01*
X552000Y385000D02*
X556500Y389500D01*
X515000Y362500D02*
Y365500D01*
D16*
X618500Y371000D02*
D03*
D17*
Y364882D02*
D03*
D18*
Y355500D02*
D03*
X618579Y324269D02*
D03*
D19*
X508882Y365500D02*
D03*
D20*
X515000D02*
D03*
D21*
X496117Y338169D02*
D03*
Y335610D02*
D03*
Y345847D02*
D03*
Y340728D02*
D03*
Y343287D02*
D03*
D22*
X559264Y359689D02*
D03*
X560839D02*
D03*
X562413D02*
D03*
X563988D02*
D03*
X565563D02*
D03*
X567138D02*
D03*
X568713D02*
D03*
X570287D02*
D03*
X571862D02*
D03*
X573437D02*
D03*
X575012D02*
D03*
X576587D02*
D03*
X578161D02*
D03*
X579736D02*
D03*
Y333311D02*
D03*
X578161D02*
D03*
X576587D02*
D03*
X575012D02*
D03*
X573437D02*
D03*
X571862D02*
D03*
X570287D02*
D03*
X568713D02*
D03*
X567138D02*
D03*
X565563D02*
D03*
X563988D02*
D03*
X562413D02*
D03*
X560839D02*
D03*
X559264D02*
D03*
D23*
X582689Y356736D02*
D03*
Y355161D02*
D03*
Y353587D02*
D03*
Y352012D02*
D03*
Y350437D02*
D03*
Y348862D02*
D03*
Y347287D02*
D03*
Y345713D02*
D03*
Y344138D02*
D03*
Y342563D02*
D03*
Y340988D02*
D03*
Y339413D02*
D03*
Y337839D02*
D03*
Y336264D02*
D03*
X556311D02*
D03*
Y337839D02*
D03*
Y339413D02*
D03*
Y340988D02*
D03*
Y342563D02*
D03*
Y344138D02*
D03*
Y345713D02*
D03*
Y347287D02*
D03*
Y348862D02*
D03*
Y350437D02*
D03*
Y352012D02*
D03*
Y353587D02*
D03*
Y355161D02*
D03*
Y356736D02*
D03*
D24*
X569500Y346500D02*
D03*
D25*
X538000Y340800D02*
D03*
Y333500D02*
D03*
D26*
X530500Y327500D02*
D03*
Y340886D02*
D03*
D47*
X626500Y311500D02*
Y315700D01*
X629900Y319100D02*
X637100D01*
X626500Y315700D02*
X629900Y319100D01*
X615500Y300500D02*
X626500Y311500D01*
X501548Y345847D02*
X502702Y347000D01*
X502800D01*
X496117Y345847D02*
X501548D01*
X637100Y319100D02*
X642000Y324000D01*
Y364000D02*
X647500Y358500D01*
Y349500D02*
Y358500D01*
X642000Y344000D02*
X647500Y349500D01*
X642000Y334000D02*
Y344000D01*
Y324000D02*
Y334000D01*
D48*
X646819Y302181D02*
D03*
Y390319D02*
D03*
X482181D02*
D03*
Y302181D02*
D03*
D49*
X615500Y310500D02*
D03*
Y300500D02*
D03*
X605500Y310500D02*
D03*
Y300500D02*
D03*
X595500Y310500D02*
D03*
Y300500D02*
D03*
X585500Y310500D02*
D03*
Y300500D02*
D03*
X575500Y310500D02*
D03*
Y300500D02*
D03*
X565500Y310500D02*
D03*
Y300500D02*
D03*
X555500Y310500D02*
D03*
Y300500D02*
D03*
X545500Y310500D02*
D03*
Y300500D02*
D03*
X535500Y310500D02*
D03*
Y300500D02*
D03*
X525500Y310500D02*
D03*
Y300500D02*
D03*
X515500Y310500D02*
D03*
X642000Y374000D02*
D03*
X632000Y364000D02*
D03*
X642000D02*
D03*
X632000Y354000D02*
D03*
X642000D02*
D03*
X632000Y344000D02*
D03*
X642000D02*
D03*
X632000Y334000D02*
D03*
X642000D02*
D03*
X632000Y324000D02*
D03*
X642000D02*
D03*
Y314000D02*
D03*
X632000D02*
D03*
X516500Y379500D02*
D03*
Y389500D02*
D03*
X526500Y379500D02*
D03*
Y389500D02*
D03*
X536500Y379500D02*
D03*
Y389500D02*
D03*
X546500Y379500D02*
D03*
Y389500D02*
D03*
X556500Y379500D02*
D03*
Y389500D02*
D03*
X566500Y379500D02*
D03*
Y389500D02*
D03*
X576500Y379500D02*
D03*
Y389500D02*
D03*
X586500Y379500D02*
D03*
Y389500D02*
D03*
X596500Y379500D02*
D03*
Y389500D02*
D03*
X606500Y379500D02*
D03*
Y389500D02*
D03*
X616500Y379500D02*
D03*
D50*
X515500Y300500D02*
D03*
X616500Y389500D02*
D03*
D51*
X484700Y355000D02*
D03*
Y326457D02*
D03*
D52*
X495369Y331181D02*
D03*
Y350276D02*
D03*
D53*
X632000Y374000D02*
D03*
D54*
X586616Y356399D02*
D03*
X588000Y351988D02*
D03*
X588600Y354600D02*
D03*
X573831Y337839D02*
D03*
X569500D02*
D03*
X565169D02*
D03*
X578161Y342169D02*
D03*
X573831D02*
D03*
X569500D02*
D03*
X565169D02*
D03*
X560839D02*
D03*
X578161Y346500D02*
D03*
X573831D02*
D03*
X569500D02*
D03*
X565169D02*
D03*
X560839D02*
D03*
X578161Y350831D02*
D03*
X573831D02*
D03*
X569500D02*
D03*
X565169D02*
D03*
X560839D02*
D03*
X573831Y355161D02*
D03*
X569500D02*
D03*
X565169D02*
D03*
X515000Y362500D02*
D03*
X583500Y360000D02*
D03*
D55*
X578200Y325700D02*
D03*
X592500Y347000D02*
D03*
X573949Y328951D02*
D03*
X547600Y344900D02*
D03*
X562000Y366500D02*
D03*
X607900Y369700D02*
D03*
X609900Y372200D02*
D03*
X502800Y347000D02*
D03*
X619000Y331000D02*
D03*
X622000Y361500D02*
D03*
X617000Y349000D02*
D03*
X616000Y371000D02*
D03*
X543500Y360000D02*
D03*
X592500Y339000D02*
D03*
Y343000D02*
D03*
X551000Y351000D02*
D03*
X557500Y323000D02*
D03*
X537000Y329500D02*
D03*
X556500Y333500D02*
D03*
X564000Y363500D02*
D03*
X566000Y329500D02*
D03*
X530500Y345500D02*
D03*
D56*
X571600Y365900D02*
D03*
M02*
