G04*
G04 #@! TF.GenerationSoftware,Altium Limited,Altium Designer,21.6.1 (37)*
G04*
G04 Layer_Color=128*
%FSLAX25Y25*%
%MOIN*%
G70*
G04*
G04 #@! TF.SameCoordinates,071825C8-D767-4C1D-B5F0-F0FA3D86134F*
G04*
G04*
G04 #@! TF.FilePolarity,Positive*
G04*
G01*
G75*
%ADD25R,0.03000X0.04000*%
%ADD57R,0.03150X0.04000*%
%ADD58R,0.04331X0.04724*%
%ADD59R,0.04000X0.03150*%
%ADD60R,0.04000X0.03000*%
%ADD61R,0.10630X0.12992*%
%ADD62R,0.10630X0.03937*%
%ADD63R,0.04724X0.05512*%
D25*
X577500Y341300D02*
D03*
Y334000D02*
D03*
X570100Y359000D02*
D03*
Y351700D02*
D03*
X564500Y359000D02*
D03*
Y351700D02*
D03*
X573000Y333450D02*
D03*
Y340750D02*
D03*
X592700Y355100D02*
D03*
Y362400D02*
D03*
X623000Y337200D02*
D03*
Y344500D02*
D03*
X568500Y333350D02*
D03*
Y340650D02*
D03*
D57*
X597500Y337200D02*
D03*
Y344500D02*
D03*
X625500Y371800D02*
D03*
Y364500D02*
D03*
X613500Y363775D02*
D03*
Y371075D02*
D03*
X562000Y333650D02*
D03*
Y326350D02*
D03*
X602300Y344450D02*
D03*
Y337150D02*
D03*
X606800Y344450D02*
D03*
Y337150D02*
D03*
X617000Y337200D02*
D03*
Y344500D02*
D03*
D58*
X605133Y362240D02*
D03*
Y354760D02*
D03*
X599227D02*
D03*
Y362240D02*
D03*
D59*
X598000Y328000D02*
D03*
X590700D02*
D03*
X598000Y332500D02*
D03*
X590700D02*
D03*
X515150Y359500D02*
D03*
X507850D02*
D03*
D60*
X584300Y346800D02*
D03*
X577000D02*
D03*
X584500Y359500D02*
D03*
X577200D02*
D03*
X557000Y347500D02*
D03*
X564300D02*
D03*
Y343000D02*
D03*
X557000D02*
D03*
X508000Y364000D02*
D03*
X500700D02*
D03*
D61*
X530000Y342000D02*
D03*
D62*
X506772Y351055D02*
D03*
Y342000D02*
D03*
Y332945D02*
D03*
D63*
X494614Y370000D02*
D03*
X508000D02*
D03*
M02*
