G04*
G04 #@! TF.GenerationSoftware,Altium Limited,Altium Designer,21.6.1 (37)*
G04*
G04 Layer_Color=128*
%FSLAX25Y25*%
%MOIN*%
G70*
G04*
G04 #@! TF.SameCoordinates,106F5416-AD59-4A07-A881-2BE26F571D9C*
G04*
G04*
G04 #@! TF.FilePolarity,Positive*
G04*
G01*
G75*
%ADD10C,0.01000*%
%ADD11C,0.00200*%
D10*
X473500Y300500D02*
G03*
X480500Y293500I7000J0D01*
G01*
Y399000D02*
G03*
X473500Y392000I0J-7000D01*
G01*
X655500D02*
G03*
X648500Y399000I-7000J0D01*
G01*
Y293500D02*
G03*
X655500Y300500I0J7000D01*
G01*
Y300000D02*
Y392500D01*
X480500Y399000D02*
X649000D01*
X473500Y300500D02*
Y392000D01*
X480500Y293500D02*
X649000D01*
D11*
X642882Y302181D02*
X650756D01*
X646819Y298244D02*
Y306118D01*
X642882Y390319D02*
X650756D01*
X646819Y386382D02*
Y394256D01*
X478244Y390319D02*
X486118D01*
X482181Y386382D02*
Y394256D01*
X478244Y302181D02*
X486118D01*
X482181Y298244D02*
Y306118D01*
X613728Y310500D02*
X617272D01*
X615500Y308728D02*
Y312272D01*
X613728Y300500D02*
X617272D01*
X615500Y298728D02*
Y302272D01*
X603728Y310500D02*
X607272D01*
X605500Y308728D02*
Y312272D01*
X603728Y300500D02*
X607272D01*
X605500Y298728D02*
Y302272D01*
X593728Y310500D02*
X597272D01*
X595500Y308728D02*
Y312272D01*
X593728Y300500D02*
X597272D01*
X595500Y298728D02*
Y302272D01*
X583728Y310500D02*
X587272D01*
X585500Y308728D02*
Y312272D01*
X583728Y300500D02*
X587272D01*
X585500Y298728D02*
Y302272D01*
X573728Y310500D02*
X577272D01*
X575500Y308728D02*
Y312272D01*
X573728Y300500D02*
X577272D01*
X575500Y298728D02*
Y302272D01*
X563728Y310500D02*
X567272D01*
X565500Y308728D02*
Y312272D01*
X563728Y300500D02*
X567272D01*
X565500Y298728D02*
Y302272D01*
X553728Y310500D02*
X557272D01*
X555500Y308728D02*
Y312272D01*
X553728Y300500D02*
X557272D01*
X555500Y298728D02*
Y302272D01*
X543728Y310500D02*
X547272D01*
X545500Y308728D02*
Y312272D01*
X543728Y300500D02*
X547272D01*
X545500Y298728D02*
Y302272D01*
X533728Y310500D02*
X537272D01*
X535500Y308728D02*
Y312272D01*
X533728Y300500D02*
X537272D01*
X535500Y298728D02*
Y302272D01*
X523728Y310500D02*
X527272D01*
X525500Y308728D02*
Y312272D01*
X523728Y300500D02*
X527272D01*
X525500Y298728D02*
Y302272D01*
X513728Y310500D02*
X517272D01*
X515500Y308728D02*
Y312272D01*
X513728Y300500D02*
X517272D01*
X515500Y298728D02*
Y302272D01*
X483716Y355000D02*
X485684D01*
X484700Y354016D02*
Y355984D01*
X494385Y331181D02*
X496353D01*
X495369Y330197D02*
Y332165D01*
X494385Y350276D02*
X496353D01*
X495369Y349291D02*
Y351260D01*
X483716Y326457D02*
X485684D01*
X484700Y325472D02*
Y327441D01*
X630228Y374000D02*
X633772D01*
X632000Y372228D02*
Y375772D01*
X640228Y374000D02*
X643772D01*
X642000Y372228D02*
Y375772D01*
X630228Y364000D02*
X633772D01*
X632000Y362228D02*
Y365772D01*
X640228Y364000D02*
X643772D01*
X642000Y362228D02*
Y365772D01*
X630228Y354000D02*
X633772D01*
X632000Y352228D02*
Y355772D01*
X640228Y354000D02*
X643772D01*
X642000Y352228D02*
Y355772D01*
X630228Y344000D02*
X633772D01*
X632000Y342228D02*
Y345772D01*
X640228Y344000D02*
X643772D01*
X642000Y342228D02*
Y345772D01*
X630228Y334000D02*
X633772D01*
X632000Y332228D02*
Y335772D01*
X640228Y334000D02*
X643772D01*
X642000Y332228D02*
Y335772D01*
X630228Y324000D02*
X633772D01*
X632000Y322228D02*
Y325772D01*
X640228Y324000D02*
X643772D01*
X642000Y322228D02*
Y325772D01*
X640228Y314000D02*
X643772D01*
X642000Y312228D02*
Y315772D01*
X630228Y314000D02*
X633772D01*
X632000Y312228D02*
Y315772D01*
X514728Y379500D02*
X518272D01*
X516500Y377728D02*
Y381272D01*
X514728Y389500D02*
X518272D01*
X516500Y387728D02*
Y391272D01*
X524728Y379500D02*
X528272D01*
X526500Y377728D02*
Y381272D01*
X524728Y389500D02*
X528272D01*
X526500Y387728D02*
Y391272D01*
X534728Y379500D02*
X538272D01*
X536500Y377728D02*
Y381272D01*
X534728Y389500D02*
X538272D01*
X536500Y387728D02*
Y391272D01*
X544728Y379500D02*
X548272D01*
X546500Y377728D02*
Y381272D01*
X544728Y389500D02*
X548272D01*
X546500Y387728D02*
Y391272D01*
X554728Y379500D02*
X558272D01*
X556500Y377728D02*
Y381272D01*
X554728Y389500D02*
X558272D01*
X556500Y387728D02*
Y391272D01*
X564728Y379500D02*
X568272D01*
X566500Y377728D02*
Y381272D01*
X564728Y389500D02*
X568272D01*
X566500Y387728D02*
Y391272D01*
X574728Y379500D02*
X578272D01*
X576500Y377728D02*
Y381272D01*
X574728Y389500D02*
X578272D01*
X576500Y387728D02*
Y391272D01*
X584728Y379500D02*
X588272D01*
X586500Y377728D02*
Y381272D01*
X584728Y389500D02*
X588272D01*
X586500Y387728D02*
Y391272D01*
X594728Y379500D02*
X598272D01*
X596500Y377728D02*
Y381272D01*
X594728Y389500D02*
X598272D01*
X596500Y387728D02*
Y391272D01*
X604728Y379500D02*
X608272D01*
X606500Y377728D02*
Y381272D01*
X604728Y389500D02*
X608272D01*
X606500Y387728D02*
Y391272D01*
X614728Y379500D02*
X618272D01*
X616500Y377728D02*
Y381272D01*
X614728Y389500D02*
X618272D01*
X616500Y387728D02*
Y391272D01*
X586025Y356399D02*
X587206D01*
X586616Y355808D02*
Y356990D01*
X587409Y351988D02*
X588590D01*
X588000Y351398D02*
Y352579D01*
X588010Y354600D02*
X589190D01*
X588600Y354010D02*
Y355190D01*
X577413Y325700D02*
X578987D01*
X578200Y324913D02*
Y326487D01*
X591713Y347000D02*
X593287D01*
X592500Y346213D02*
Y347787D01*
X573162Y328951D02*
X574736D01*
X573949Y328163D02*
Y329738D01*
X546813Y344900D02*
X548387D01*
X547600Y344113D02*
Y345687D01*
X561213Y366500D02*
X562787D01*
X562000Y365713D02*
Y367287D01*
X571000Y365900D02*
X572200D01*
X571600Y365300D02*
Y366500D01*
X607113Y369700D02*
X608687D01*
X607900Y368913D02*
Y370487D01*
X609113Y372200D02*
X610687D01*
X609900Y371413D02*
Y372987D01*
X502013Y347000D02*
X503587D01*
X502800Y346213D02*
Y347787D01*
X618213Y331000D02*
X619787D01*
X619000Y330213D02*
Y331787D01*
X621213Y361500D02*
X622787D01*
X622000Y360713D02*
Y362287D01*
X616213Y349000D02*
X617787D01*
X617000Y348213D02*
Y349787D01*
X615213Y371000D02*
X616787D01*
X616000Y370213D02*
Y371787D01*
X542713Y360000D02*
X544287D01*
X543500Y359213D02*
Y360787D01*
X591713Y339000D02*
X593287D01*
X592500Y338213D02*
Y339787D01*
X591713Y343000D02*
X593287D01*
X592500Y342213D02*
Y343787D01*
X550213Y351000D02*
X551787D01*
X551000Y350213D02*
Y351787D01*
X556713Y323000D02*
X558287D01*
X557500Y322213D02*
Y323787D01*
X536213Y329500D02*
X537787D01*
X537000Y328713D02*
Y330287D01*
X555713Y333500D02*
X557287D01*
X556500Y332713D02*
Y334287D01*
X563213Y363500D02*
X564787D01*
X564000Y362713D02*
Y364287D01*
X565213Y329500D02*
X566787D01*
X566000Y328713D02*
Y330287D01*
X573437Y337839D02*
X574224D01*
X573831Y337445D02*
Y338232D01*
X569106Y337839D02*
X569894D01*
X569500Y337445D02*
Y338232D01*
X564776Y337839D02*
X565563D01*
X565169Y337445D02*
Y338232D01*
X577768Y342169D02*
X578555D01*
X578161Y341776D02*
Y342563D01*
X573437Y342169D02*
X574224D01*
X573831Y341776D02*
Y342563D01*
X569106Y342169D02*
X569894D01*
X569500Y341776D02*
Y342563D01*
X564776Y342169D02*
X565563D01*
X565169Y341776D02*
Y342563D01*
X560445Y342169D02*
X561232D01*
X560839Y341776D02*
Y342563D01*
X577768Y346500D02*
X578555D01*
X578161Y346106D02*
Y346894D01*
X573437Y346500D02*
X574224D01*
X573831Y346106D02*
Y346894D01*
X569106Y346500D02*
X569894D01*
X569500Y346106D02*
Y346894D01*
X564776Y346500D02*
X565563D01*
X565169Y346106D02*
Y346894D01*
X560445Y346500D02*
X561232D01*
X560839Y346106D02*
Y346894D01*
X577768Y350831D02*
X578555D01*
X578161Y350437D02*
Y351224D01*
X573437Y350831D02*
X574224D01*
X573831Y350437D02*
Y351224D01*
X569106Y350831D02*
X569894D01*
X569500Y350437D02*
Y351224D01*
X564776Y350831D02*
X565563D01*
X565169Y350437D02*
Y351224D01*
X560445Y350831D02*
X561232D01*
X560839Y350437D02*
Y351224D01*
X573437Y355161D02*
X574224D01*
X573831Y354768D02*
Y355555D01*
X569106Y355161D02*
X569894D01*
X569500Y354768D02*
Y355555D01*
X564776Y355161D02*
X565563D01*
X565169Y354768D02*
Y355555D01*
X529713Y345500D02*
X531287D01*
X530500Y344713D02*
Y346287D01*
X514409Y362500D02*
X515590D01*
X515000Y361910D02*
Y363090D01*
X582909Y360000D02*
X584091D01*
X583500Y359409D02*
Y360591D01*
M02*
