G04*
G04 #@! TF.GenerationSoftware,Altium Limited,Altium Designer,21.6.1 (37)*
G04*
G04 Layer_Color=32768*
%FSLAX25Y25*%
%MOIN*%
G70*
G04*
G04 #@! TF.SameCoordinates,071825C8-D767-4C1D-B5F0-F0FA3D86134F*
G04*
G04*
G04 #@! TF.FilePolarity,Positive*
G04*
G01*
G75*
%ADD13C,0.01000*%
%ADD15C,0.00394*%
%ADD71C,0.00100*%
%ADD72C,0.00197*%
D13*
X607180Y363000D02*
G03*
X607180Y363000I-500J0D01*
G01*
D15*
X518386Y340032D02*
Y343969D01*
X516417Y342000D02*
X520354D01*
X569500Y344531D02*
Y348468D01*
X567531Y346500D02*
X571468D01*
D71*
X578000Y337650D02*
G03*
X578000Y337650I-500J0D01*
G01*
X598000Y340850D02*
G03*
X598000Y340850I-500J0D01*
G01*
X594850Y328000D02*
G03*
X594850Y328000I-500J0D01*
G01*
Y332500D02*
G03*
X594850Y332500I-500J0D01*
G01*
X570600Y355350D02*
G03*
X570600Y355350I-500J0D01*
G01*
X565000D02*
G03*
X565000Y355350I-500J0D01*
G01*
X581150Y346800D02*
G03*
X581150Y346800I-500J0D01*
G01*
X581350Y359500D02*
G03*
X581350Y359500I-500J0D01*
G01*
X573500Y337100D02*
G03*
X573500Y337100I-500J0D01*
G01*
X619000Y367941D02*
G03*
X619000Y367941I-500J0D01*
G01*
X512441Y365500D02*
G03*
X512441Y365500I-500J0D01*
G01*
X626000Y368150D02*
G03*
X626000Y368150I-500J0D01*
G01*
X614000Y367425D02*
G03*
X614000Y367425I-500J0D01*
G01*
X562500Y330000D02*
G03*
X562500Y330000I-500J0D01*
G01*
X561150Y347500D02*
G03*
X561150Y347500I-500J0D01*
G01*
X602800Y340800D02*
G03*
X602800Y340800I-500J0D01*
G01*
X607300D02*
G03*
X607300Y340800I-500J0D01*
G01*
X593200Y358750D02*
G03*
X593200Y358750I-500J0D01*
G01*
X538500Y337150D02*
G03*
X538500Y337150I-500J0D01*
G01*
X561150Y343000D02*
G03*
X561150Y343000I-500J0D01*
G01*
X623500Y340850D02*
G03*
X623500Y340850I-500J0D01*
G01*
X617500D02*
G03*
X617500Y340850I-500J0D01*
G01*
X504850Y364000D02*
G03*
X504850Y364000I-500J0D01*
G01*
X512000Y359500D02*
G03*
X512000Y359500I-500J0D01*
G01*
X569000Y337000D02*
G03*
X569000Y337000I-500J0D01*
G01*
X576713Y337650D02*
X578287D01*
X577500Y336863D02*
Y338437D01*
X596713Y340850D02*
X598287D01*
X597500Y340063D02*
Y341637D01*
X593563Y328000D02*
X595137D01*
X594350Y327213D02*
Y328787D01*
X593563Y332500D02*
X595137D01*
X594350Y331713D02*
Y333287D01*
X570100Y354563D02*
Y356137D01*
X569313Y355350D02*
X570887D01*
X563713D02*
X565287D01*
X564500Y354563D02*
Y356137D01*
X579863Y346800D02*
X581437D01*
X580650Y346013D02*
Y347587D01*
X580850Y358713D02*
Y360287D01*
X580063Y359500D02*
X581637D01*
X572213Y337100D02*
X573787D01*
X573000Y336313D02*
Y337887D01*
X617713Y367941D02*
X619287D01*
X618500Y367154D02*
Y368728D01*
X511154Y365500D02*
X512728D01*
X511941Y364713D02*
Y366287D01*
X625500Y367363D02*
Y368937D01*
X624713Y368150D02*
X626287D01*
X613500Y366638D02*
Y368213D01*
X612713Y367425D02*
X614287D01*
X562000Y329213D02*
Y330787D01*
X561213Y330000D02*
X562787D01*
X560650Y346713D02*
Y348287D01*
X559863Y347500D02*
X561437D01*
X602300Y340013D02*
Y341587D01*
X601513Y340800D02*
X603087D01*
X606800Y340013D02*
Y341587D01*
X606013Y340800D02*
X607587D01*
X591913Y358750D02*
X593487D01*
X592700Y357963D02*
Y359537D01*
X538000Y336363D02*
Y337937D01*
X537213Y337150D02*
X538787D01*
X559863Y343000D02*
X561437D01*
X560650Y342213D02*
Y343787D01*
X623000Y340063D02*
Y341637D01*
X622213Y340850D02*
X623787D01*
X616213D02*
X617787D01*
X617000Y340063D02*
Y341637D01*
X503563Y364000D02*
X505137D01*
X504350Y363213D02*
Y364787D01*
X511500Y358713D02*
Y360287D01*
X510713Y359500D02*
X512287D01*
X568500Y336213D02*
Y337787D01*
X567713Y337000D02*
X569287D01*
D72*
X619878Y340000D02*
G03*
X619878Y340000I-1378J0D01*
G01*
X486078Y340728D02*
G03*
X486078Y340728I-1378J0D01*
G01*
X531878Y334193D02*
G03*
X531878Y334193I-1378J0D01*
G01*
X502685Y370000D02*
G03*
X502685Y370000I-1378J0D01*
G01*
X499488Y357157D02*
X537284D01*
X499488Y326842D02*
X537284D01*
Y357157D01*
X499488Y326842D02*
Y357157D01*
X616532Y340000D02*
X620469D01*
X618500Y338032D02*
Y341968D01*
X484700Y338760D02*
Y342697D01*
X482731Y340728D02*
X486668D01*
X553260Y330260D02*
X585740D01*
X553260Y362740D02*
X585740D01*
Y330260D02*
Y362740D01*
X553260Y330260D02*
Y362740D01*
X530500Y332224D02*
Y336161D01*
X528532Y334193D02*
X532469D01*
X499339Y370000D02*
X503276D01*
X501307Y368032D02*
Y371969D01*
M02*
